<?xml version="1.0" standalone="no"?>
<!DOCTYPE svg PUBLIC "-//W3C//DTD SVG 20010904//EN"
 "http://www.w3.org/TR/2001/REC-SVG-20010904/DTD/svg10.dtd">
<svg version="1.0" xmlns="http://www.w3.org/2000/svg"
 width="150.000000pt" height="150.000000pt" viewBox="0 0 150.000000 150.000000"
 preserveAspectRatio="xMidYMid meet">

<g transform="translate(0.000000,150.000000) scale(0.100000,-0.100000)"
fill="#000000" stroke="none">
<path d="M56 1358 c-22 -31 -20 -84 4 -108 18 -18 33 -20 175 -20 l155 0 10
-25 c9 -24 14 -25 84 -25 80 0 100 11 94 52 -2 13 -13 27 -24 32 -15 7 -23 22
-27 48 -9 69 -6 68 -243 68 -209 0 -213 0 -228 -22z m332 -25 c-53 -2 -143 -2
-200 0 -57 1 -13 3 97 3 110 0 156 -2 103 -3z m0 -30 c-53 -2 -143 -2 -200 0
-57 1 -13 3 97 3 110 0 156 -2 103 -3z m-108 -33 c0 -6 -38 -10 -95 -10 -57 0
-95 4 -95 10 0 6 38 10 95 10 57 0 95 -4 95 -10z"/>
<path d="M220 1065 l0 -25 480 0 480 0 0 25 0 25 -480 0 -480 0 0 -25z m42 0
c0 -5 -5 -11 -11 -13 -6 -2 -11 4 -11 13 0 9 5 15 11 13 6 -2 11 -8 11 -13z
m46 4 c-2 -6 -8 -10 -13 -10 -5 0 -11 4 -13 10 -2 6 4 11 13 11 9 0 15 -5 13
-11z m42 -4 c0 -8 -4 -15 -9 -15 -13 0 -22 16 -14 24 11 11 23 6 23 -9z"/>
<path d="M389 969 c-11 -11 -18 -27 -15 -36 3 -8 6 -19 6 -24 0 -5 5 -9 10 -9
6 0 10 7 10 16 0 8 4 13 9 10 9 -6 41 36 41 54 0 18 -39 11 -61 -11z"/>
<path d="M621 954 c0 -11 3 -14 6 -6 3 7 2 16 -1 19 -3 4 -6 -2 -5 -13z"/>
<path d="M316 882 c-3 -5 0 -22 6 -38 9 -26 7 -37 -21 -88 -17 -32 -31 -65
-31 -72 0 -7 12 -27 27 -44 14 -17 27 -46 28 -63 2 -18 6 -96 10 -174 7 -125
10 -143 25 -143 14 0 18 14 23 83 9 112 17 152 28 135 5 -7 9 -31 9 -54 0 -23
3 -69 6 -103 6 -49 10 -61 24 -61 14 0 19 12 24 63 9 89 10 318 2 345 -7 21
-6 22 31 16 36 -5 42 -3 76 35 55 61 46 83 -14 39 l-31 -23 -21 27 c-12 14
-35 44 -51 67 -16 22 -35 42 -41 45 -30 11 -103 17 -109 8z"/>
<path d="M1013 863 c9 -9 19 -14 23 -11 10 10 -6 28 -24 28 -15 0 -15 -1 1
-17z"/>
<path d="M1080 864 c0 -17 22 -14 28 4 2 7 -3 12 -12 12 -9 0 -16 -7 -16 -16z"/>
<path d="M918 858 c16 -16 16 -88 0 -88 -9 0 -8 -4 2 -10 8 -5 39 -10 68 -10
40 0 52 3 52 15 0 9 -6 15 -12 14 -24 -3 -38 1 -38 11 0 6 14 10 30 10 25 0
30 -4 30 -25 0 -14 5 -25 10 -25 6 0 10 11 10 25 0 20 5 25 24 25 35 0 42 18
9 22 -20 2 -29 9 -31 26 -2 12 -7 22 -12 22 -5 0 -10 -10 -12 -22 -2 -17 -10
-23 -28 -23 -14 0 -26 6 -26 13 -1 6 -2 17 -3 22 0 6 -20 10 -43 10 -33 0 -39
-3 -30 -12z"/>
<path d="M1080 765 c0 -8 9 -15 20 -15 11 0 20 2 20 5 0 2 -9 9 -20 15 -16 9
-20 8 -20 -5z"/>
<path d="M752 690 c0 -14 2 -19 5 -12 2 6 2 18 0 25 -3 6 -5 1 -5 -13z"/>
<path d="M780 690 c0 -5 5 -10 11 -10 5 0 7 5 4 10 -3 6 -8 10 -11 10 -2 0 -4
-4 -4 -10z"/>
<path d="M1100 658 c0 -23 -14 -35 -46 -42 -26 -6 -32 -4 -37 14 -4 16 -9 18
-29 11 -14 -5 -23 -17 -23 -30 0 -11 -17 -38 -37 -58 -46 -47 -58 -79 -58
-149 0 -67 17 -109 60 -152 134 -135 360 -40 360 150 0 33 -7 68 -19 90 -15
30 -16 38 -5 42 18 7 17 16 -2 41 -14 18 -16 19 -28 3 -11 -15 -14 -15 -44 3
-27 18 -30 24 -22 45 8 21 6 26 -16 34 -34 13 -54 12 -54 -2z m56 -87 c79 -36
122 -124 103 -210 -13 -59 -42 -97 -92 -123 -83 -43 -184 -19 -237 54 -70 97
-35 230 75 279 51 24 99 23 151 0z"/>
<path d="M1067 413 c-13 -12 -7 -20 34 -47 31 -21 38 -23 31 -9 -15 27 -58 64
-65 56z"/>
<path d="M340 211 c-14 -28 -13 -31 15 -31 26 0 29 7 19 34 -8 21 -21 20 -34
-3z"/>
<path d="M432 203 c2 -10 9 -18 16 -17 6 1 27 2 45 3 30 2 31 2 13 16 -29 22
-78 20 -74 -2z"/>
</g>
</svg>
