<?xml version="1.0" standalone="no"?>
<!DOCTYPE svg PUBLIC "-//W3C//DTD SVG 20010904//EN"
 "http://www.w3.org/TR/2001/REC-SVG-20010904/DTD/svg10.dtd">
<svg version="1.0" xmlns="http://www.w3.org/2000/svg"
 width="150.000000pt" height="150.000000pt" viewBox="0 0 150.000000 150.000000"
 preserveAspectRatio="xMidYMid meet">

<g transform="translate(0.000000,150.000000) scale(0.100000,-0.100000)"
fill="#000000" stroke="none">
<path d="M562 1314 c-31 -21 -28 -84 5 -99 13 -5 24 -22 28 -42 8 -42 17 -47
100 -53 l70 -5 3 -237 c2 -230 2 -237 -18 -243 -26 -8 -26 -31 0 -45 18 -9 20
-21 20 -96 0 -105 17 -149 63 -163 56 -16 302 -44 331 -37 56 14 59 39 53 455
-7 450 5 416 -150 436 -38 5 -50 11 -57 30 -13 34 -40 45 -109 45 -54 0 -61 2
-61 19 0 39 -37 51 -150 51 -80 0 -111 -4 -128 -16z m416 -114 l1 -30 -174 0
-174 0 1 30 1 30 172 0 172 0 1 -30z m-148 -50 c0 -6 -40 -10 -100 -10 -60 0
-100 4 -100 10 0 6 40 10 100 10 60 0 100 -4 100 -10z m328 -22 l22 -21 0
-387 c0 -287 -3 -389 -12 -398 -7 -7 -24 -12 -39 -12 -30 0 -27 -15 -49 276
-9 129 -23 176 -62 211 -21 20 -28 21 -61 12 -43 -12 -48 -22 -67 -121 -13
-72 -17 -75 -67 -58 l-30 11 -6 112 c-4 62 -7 167 -7 235 l0 122 54 0 c44 0
57 -4 70 -22 17 -23 17 -23 13 -1 -4 17 1 22 28 27 18 4 41 16 51 27 17 19 26
20 79 14 40 -4 67 -13 83 -27z m-325 -591 c27 -21 28 -24 21 -94 -8 -90 -16
-104 -43 -79 -18 17 -21 31 -21 108 0 48 3 88 8 88 4 0 20 -10 35 -23z"/>
<path d="M910 1020 c-12 -7 -12 -12 -2 -22 19 -19 14 -28 -18 -28 -20 0 -28
-4 -24 -13 3 -9 16 -12 34 -9 27 4 30 1 30 -23 0 -23 -3 -25 -22 -19 -13 4
-26 11 -29 16 -3 5 -6 -7 -7 -27 -2 -41 10 -49 53 -36 30 8 31 12 24 60 -2 14
2 26 10 29 10 3 12 -2 8 -21 -9 -33 17 -57 31 -30 5 10 13 32 16 49 13 58 -54
106 -104 74z"/>
<path d="M279 1190 c-64 -10 -125 -22 -136 -29 -39 -20 -43 -58 -43 -440 0
-395 2 -407 53 -425 34 -12 330 26 354 46 39 32 43 68 43 363 l0 285 45 0 c36
0 47 4 61 25 15 23 15 27 0 50 -14 21 -25 25 -61 25 -45 0 -45 0 -45 35 0 25
-8 44 -25 60 -30 30 -74 31 -246 5z m161 -210 c6 -12 10 -42 8 -68 -3 -43 -5
-47 -30 -50 -21 -3 -28 -9 -28 -26 0 -12 4 -26 9 -32 21 -22 88 -441 73 -455
-10 -9 -253 -41 -260 -35 -3 3 0 62 5 131 10 118 12 126 42 160 17 19 37 48
45 63 25 49 58 195 53 235 -4 27 -1 37 8 37 8 0 22 14 32 30 20 35 28 37 43
10z"/>
</g>
</svg>
