<?xml version="1.0" standalone="no"?>
<!DOCTYPE svg PUBLIC "-//W3C//DTD SVG 20010904//EN"
 "http://www.w3.org/TR/2001/REC-SVG-20010904/DTD/svg10.dtd">
<svg version="1.0" xmlns="http://www.w3.org/2000/svg"
 width="831.000000pt" height="554.000000pt" viewBox="0 0 831.000000 554.000000"
 preserveAspectRatio="xMidYMid meet">

<g transform="translate(0.000000,554.000000) scale(0.100000,-0.100000)"
fill="#000000" stroke="none">
<path d="M368 5533 c6 -2 18 -2 25 0 6 3 1 5 -13 5 -14 0 -19 -2 -12 -5z"/>
<path d="M1495 5403 c-19 -344 -20 -378 -10 -385 5 -4 28 -6 50 -4 22 2 45 4
52 5 7 1 5 14 -8 41 -10 21 -19 50 -19 64 0 23 26 86 65 156 29 52 48 106 52
145 4 33 1 44 -21 64 -14 14 -26 30 -26 38 0 9 -17 13 -63 13 l-64 0 -8 -137z"/>
<path d="M2064 5508 c-8 -36 -10 -46 -12 -67 -1 -8 -5 -11 -9 -8 -10 11 -34
-53 -25 -68 12 -21 89 -102 113 -119 18 -12 19 -16 7 -16 -11 0 -15 -6 -11
-18 4 -19 -5 -41 -50 -110 -34 -52 -30 -72 14 -72 18 0 55 -7 83 -16 47 -14
54 -14 89 1 l39 16 -5 52 c-10 103 -20 132 -47 135 -37 6 -45 16 -59 74 -9 39
-10 65 -2 98 9 39 7 51 -14 98 -23 50 -25 52 -64 52 -36 0 -40 -3 -47 -32z"/>
<path d="M7779 5471 c-21 -21 -29 -39 -29 -65 0 -41 12 -51 42 -35 65 35 81
129 21 129 -2 0 -18 -13 -34 -29z"/>
<path d="M7624 5422 c-22 -14 -47 -78 -45 -113 1 -25 -3 -38 -13 -42 -20 -8
-32 11 -17 26 18 18 13 55 -9 67 -23 12 -79 4 -119 -16 -14 -8 -32 -14 -40
-14 -9 0 -11 -8 -7 -26 24 -93 17 -106 -29 -53 l-26 32 23 26 c13 14 27 29 33
33 20 15 -27 20 -86 9 -37 -6 -67 -17 -75 -28 -13 -19 -11 -21 39 -37 27 -8
21 -21 -25 -52 -24 -15 -57 -41 -75 -57 -27 -25 -37 -29 -68 -23 -41 8 -65 -5
-65 -36 0 -36 -51 -116 -84 -132 -48 -23 -58 -47 -35 -82 10 -16 19 -35 19
-43 0 -8 14 -36 31 -63 34 -52 34 -87 0 -68 -31 16 -53 12 -86 -15 l-30 -25
33 -30 c38 -35 39 -42 11 -81 -27 -38 -21 -63 15 -69 43 -7 55 -33 34 -71 -10
-17 -18 -37 -18 -45 0 -7 -18 -25 -40 -39 -50 -31 -63 -55 -50 -90 5 -14 10
-43 10 -63 0 -48 31 -97 65 -106 39 -10 54 16 55 89 0 55 2 62 30 80 29 19 55
67 43 79 -9 9 0 7 34 -4 17 -6 35 -22 41 -36 7 -13 23 -29 37 -36 34 -15 31
-24 -12 -38 -58 -19 -98 -54 -112 -98 -16 -48 -9 -72 33 -114 32 -32 38 -34
96 -32 40 1 66 7 71 16 5 7 9 39 9 71 0 43 4 59 16 64 8 3 20 16 25 29 12 33
59 34 59 1 0 -14 18 -40 45 -67 25 -24 45 -51 45 -60 1 -13 2 -13 13 0 7 8 26
22 42 30 25 13 31 23 35 60 6 50 26 64 36 25 12 -48 -1 -129 -26 -163 -29 -39
-40 -40 -72 -7 -24 23 -26 24 -30 7 -4 -13 -18 -21 -46 -26 -47 -7 -74 -38
-66 -72 4 -15 -1 -33 -15 -50 -12 -15 -21 -35 -21 -45 0 -10 -9 -24 -21 -32
-33 -24 -89 -2 -89 34 0 14 -7 19 -30 19 -16 0 -30 5 -30 11 0 25 -137 109
-178 109 -31 0 -82 27 -82 44 0 7 7 19 15 26 56 46 -61 92 -151 60 -34 -13
-68 -55 -60 -76 4 -11 17 -13 60 -8 43 5 58 3 71 -9 14 -15 14 -17 -5 -27 -25
-14 -26 -40 0 -73 l20 -25 -35 -22 -36 -22 -44 23 -43 23 -41 -27 c-22 -15
-47 -40 -56 -57 -15 -30 -15 -30 11 -40 14 -6 31 -10 38 -9 6 1 37 1 69 0 l57
-1 0 -32 c0 -17 -7 -40 -17 -50 -9 -11 -11 -18 -5 -18 20 0 13 -36 -12 -59
-24 -23 -51 -95 -41 -111 3 -6 16 -10 28 -10 45 0 51 -13 33 -66 -9 -26 -16
-49 -16 -51 0 -7 63 -2 79 7 10 5 26 21 35 35 19 29 9 60 -23 70 -24 7 -19 29
18 74 32 39 64 38 60 -1 -2 -13 2 -33 9 -45 17 -30 15 -48 -7 -92 -25 -47 -42
-62 -61 -51 -18 11 -58 -45 -53 -74 4 -17 18 -25 66 -36 66 -16 82 -36 54 -68
-8 -9 -18 -32 -22 -50 -4 -18 -12 -38 -18 -45 -54 -58 -81 -128 -72 -186 5
-36 4 -41 -13 -41 -11 0 -32 10 -47 22 l-28 22 24 19 c30 24 16 51 -30 55 -37
4 -86 -38 -97 -83 -7 -29 10 -49 33 -40 17 6 33 -27 27 -52 -7 -24 4 -32 48
-38 22 -3 35 1 44 13 17 23 31 6 16 -18 -7 -12 -8 -21 -2 -25 7 -4 7 -13 0
-25 -5 -10 -10 -45 -10 -78 0 -50 -4 -63 -26 -85 -26 -26 -25 -47 1 -47 7 0
15 -6 18 -12 3 -10 8 -9 18 3 19 22 40 28 62 17 31 -16 47 8 47 73 0 48 3 59
20 64 22 7 60 -10 60 -28 0 -7 -7 -46 -15 -87 -20 -97 -36 -110 -123 -105 -54
3 -67 0 -85 -18 -23 -23 -24 -42 -5 -92 16 -43 48 -75 75 -75 19 0 25 8 34 44
6 24 23 56 39 71 32 31 67 30 62 0 -7 -40 -6 -101 1 -125 7 -21 2 -34 -23 -65
-23 -29 -29 -45 -25 -65 6 -28 -10 -40 -76 -54 -14 -3 -40 -16 -59 -28 -76
-52 -66 -86 31 -106 35 -7 75 -20 88 -29 l25 -16 -24 -19 c-14 -11 -34 -18
-47 -15 -13 2 -24 0 -24 -4 -1 -5 -3 -13 -4 -19 -1 -5 -3 -14 -4 -20 0 -5 -23
-10 -51 -10 -41 0 -50 -3 -51 -17 0 -19 -1 -18 -41 74 -32 74 -48 155 -48 243
0 57 -5 95 -15 114 -9 17 -12 32 -6 35 11 8 32 82 25 93 -9 15 -26 9 -46 -18
-19 -24 -21 -24 -39 -8 -29 26 -23 40 29 67 l47 25 -3 56 c-3 52 -1 59 26 84
22 21 32 42 37 76 8 53 0 68 -32 60 -16 -5 -24 -16 -29 -43 -10 -64 -48 -139
-107 -213 -23 -29 -48 -21 -158 49 -97 63 -108 67 -164 69 -78 2 -120 24 -214
111 -78 72 -101 89 -101 75 0 -4 41 -46 91 -92 96 -88 239 -245 239 -263 0
-14 -179 -1 -250 18 -30 8 -67 15 -82 15 -25 0 -28 -3 -28 -35 0 -52 -23 -99
-65 -131 -21 -16 -72 -60 -114 -97 -70 -64 -187 -149 -223 -162 -11 -4 -20 6
-31 37 -10 24 -17 50 -18 58 0 8 -4 5 -10 -8 -6 -15 -5 -30 1 -43 6 -10 7 -19
2 -19 -15 0 22 -185 39 -196 5 -3 9 0 9 5 0 6 5 11 10 11 6 0 10 -9 10 -20 0
-11 -4 -20 -9 -20 -4 0 -11 -26 -14 -58 -3 -31 -9 -67 -12 -78 -9 -29 24 -42
42 -18 12 16 13 16 13 -7 0 -29 12 -50 31 -53 37 -6 119 -39 119 -47 0 -6 5
-7 10 -4 6 3 10 2 10 -4 0 -6 18 -47 39 -91 22 -44 37 -80 33 -80 -3 0 1 -6
10 -12 9 -7 19 -23 22 -35 5 -16 2 -23 -14 -28 -11 -4 -28 -18 -37 -31 -10
-16 -22 -23 -33 -19 -10 3 -22 1 -25 -6 -4 -6 -10 -7 -14 -2 -3 4 -27 14 -53
21 -45 11 -51 10 -95 -14 -82 -45 -173 -144 -155 -170 4 -5 22 -10 41 -10 23
-1 41 -9 52 -23 18 -22 35 -26 101 -23 34 2 38 6 63 60 15 31 34 63 43 70 15
11 15 14 2 22 -17 10 -15 12 27 34 42 21 41 21 48 -18 5 -22 1 -44 -8 -63 -11
-20 -12 -34 -6 -46 10 -17 -4 -79 -23 -102 -4 -5 -8 -22 -8 -39 0 -39 -46
-106 -74 -106 -28 0 -124 50 -128 66 -2 9 -8 10 -17 5 -11 -7 -5 -20 27 -62
33 -43 38 -55 27 -62 -8 -4 -22 -32 -30 -62 -9 -29 -23 -56 -31 -59 -10 -4
-13 -1 -9 7 4 6 -1 3 -9 -8 -43 -54 -52 -64 -58 -65 -4 0 -5 7 -2 15 12 31
-13 14 -29 -20 -9 -19 -21 -35 -26 -35 -5 0 -13 -10 -16 -21 -5 -13 -10 -17
-14 -11 -7 12 -32 -11 -43 -40 -9 -23 0 -28 28 -18 21 8 24 7 24 -15 0 -14 -4
-25 -8 -25 -5 0 -9 -7 -9 -15 0 -37 25 -9 42 48 12 37 21 54 23 43 3 -15 6
-16 14 -5 6 9 7 3 3 -21 -14 -75 -14 -83 0 -42 16 48 46 85 53 64 6 -19 22
-14 22 6 0 11 9 27 20 37 14 12 20 14 20 5 0 -29 -24 -146 -32 -155 -15 -17
-8 -23 60 -51 37 -16 69 -32 70 -36 2 -5 10 -8 18 -8 8 0 14 -4 14 -9 0 -5 14
-12 30 -16 17 -4 28 -10 25 -15 -3 -5 8 -11 25 -15 16 -4 30 -11 30 -17 0 -6
9 -8 20 -5 11 3 18 2 15 -3 -5 -7 31 -23 48 -21 4 1 7 -4 7 -9 0 -6 7 -10 15
-10 8 0 15 -5 15 -11 0 -6 7 -9 15 -5 21 8 45 -3 45 -20 0 -8 -4 -14 -9 -14
-5 0 -11 -9 -14 -20 -5 -19 1 -19 387 -17 254 1 390 6 389 12 0 6 -4 44 -7 85
-3 41 -17 190 -32 330 -25 238 -28 256 -50 275 -20 17 -22 27 -17 58 4 28 12
41 29 48 18 6 24 16 24 37 0 51 19 63 111 74 106 12 443 11 529 -3 97 -15 100
-16 100 -52 0 -38 7 -50 38 -66 14 -7 22 -21 22 -37 0 -14 4 -33 10 -43 7 -14
4 -20 -15 -29 -25 -12 -28 -18 -45 -116 -12 -69 -13 -196 -2 -196 4 0 27 6 52
14 44 13 109 10 183 -9 42 -11 32 -43 -22 -73 -43 -23 -45 -24 -73 -7 -16 9
-56 18 -93 20 l-64 3 -12 -51 c-6 -28 -12 -76 -13 -106 l-1 -56 35 4 c19 1 37
7 40 12 12 18 85 20 208 5 70 -9 237 -20 372 -26 135 -5 291 -12 348 -16 l102
-6 0 1690 c0 1662 0 1691 -19 1702 -32 17 -86 12 -115 -11 -26 -20 -67 -23
-73 -4 -1 6 11 19 27 30 21 14 30 28 30 48 0 24 -4 28 -22 25 -16 -2 -24 -12
-28 -32 -5 -27 -6 -28 -21 -14 -28 29 -81 32 -132 9 -25 -12 -49 -25 -52 -31
-3 -5 -14 -10 -24 -10 -10 0 -25 -9 -32 -19 -10 -14 -30 -21 -65 -25 -45 -4
-54 -2 -74 19 -13 14 -38 27 -56 31 -18 3 -35 11 -37 18 -6 16 26 143 40 157
8 8 20 8 46 -2 30 -11 39 -10 60 4 25 16 25 16 31 -16 8 -43 42 -97 61 -97 8
0 23 12 33 28 9 15 23 27 31 27 8 0 19 15 23 33 6 21 15 32 27 32 10 0 37 14
60 31 24 17 45 28 49 25 3 -3 2 -6 -2 -6 -4 0 0 -7 8 -16 9 -8 16 -25 16 -38
0 -12 6 -30 13 -40 12 -16 16 -16 61 -1 46 16 78 15 75 -2 -3 -22 15 -54 28
-49 8 3 19 6 24 6 5 0 9 18 9 39 0 33 -4 40 -25 45 -18 5 -25 13 -25 31 0 18
7 26 25 31 l25 6 0 209 0 209 -39 0 c-22 0 -43 5 -46 10 -9 15 -79 12 -122 -5
-53 -21 -68 -48 -47 -80 9 -14 23 -25 31 -25 8 0 13 -6 10 -12 -2 -9 -19 -12
-49 -10 -45 3 -65 -4 -155 -61 -21 -13 -44 -32 -52 -41 -8 -9 -28 -16 -49 -16
-28 0 -33 3 -24 12 15 15 16 54 2 63 -6 3 -19 3 -30 0 -16 -5 -20 -15 -20 -53
0 -36 3 -43 11 -32 8 11 12 12 16 2 2 -6 10 -10 16 -6 7 3 5 -1 -3 -8 -8 -7
-20 -22 -25 -32 -6 -10 -30 -25 -55 -33 -41 -14 -45 -14 -57 3 -18 24 -17 48
2 40 8 -3 21 -8 28 -11 21 -8 35 9 30 36 -3 17 -18 34 -43 48 -40 22 -53 42
-44 66 5 11 17 14 41 11 48 -5 70 2 76 25 4 13 -2 24 -19 34 -79 49 -76 46
-61 58 20 17 26 38 17 63 -6 16 -20 23 -57 28 -53 7 -65 15 -106 64 -39 48
-36 72 8 72 29 0 37 -5 45 -25 6 -15 25 -32 44 -40 19 -8 38 -19 41 -25 4 -6
25 -10 48 -9 23 1 53 -3 66 -11 22 -11 27 -10 43 10 22 27 23 50 4 95 l-15 34
27 -10 c14 -6 32 -15 39 -21 7 -5 19 -8 28 -5 21 8 2 56 -35 92 -34 32 -36 41
-16 61 19 19 35 18 71 -6 41 -27 62 -25 69 6 7 25 10 26 51 21 l43 -6 -10 35
c-12 47 -6 60 37 81 60 29 38 80 -49 113 -27 10 -37 50 -13 50 26 0 47 36 47
79 0 44 -4 49 -99 133 -28 25 -40 42 -34 50 14 23 12 38 -5 38 -27 0 -42 32
-26 55 20 26 17 49 -7 71 -20 18 -20 18 22 39 47 22 76 62 65 90 -5 14 -14 17
-52 12 -52 -5 -90 -35 -99 -78 -8 -35 -32 -38 -65 -9 -13 11 -27 20 -31 20 -4
0 -13 17 -19 38 -23 72 -52 97 -86 74z m64 -204 c-7 -19 -35 -21 -41 -3 -5 11
0 15 19 15 16 0 24 -5 22 -12z m-382 -339 c10 -17 -23 -46 -37 -32 -7 7 -9 19
-6 27 7 18 33 21 43 5z m132 -231 c-2 -12 -14 -28 -28 -35 -13 -7 -29 -18 -35
-25 -31 -40 -105 -59 -105 -27 0 18 20 49 33 49 7 0 37 14 67 30 67 35 72 36
68 8z m312 -128 c0 -5 -4 -10 -10 -10 -5 0 -10 5 -10 10 0 6 5 10 10 10 6 0
10 -4 10 -10z m380 -499 c0 -13 -28 -22 -35 -11 -3 4 1 11 7 13 20 8 28 8 28
-2z m-650 -191 c11 -11 20 -23 21 -27 0 -5 2 -17 3 -28 2 -20 1 -20 -29 -7
-41 19 -61 48 -44 68 15 19 25 18 49 -6z m-390 -88 c0 -29 -3 -33 -22 -30 -18
2 -23 9 -21 31 3 37 23 63 34 45 5 -7 9 -28 9 -46z m-86 -43 c-3 -5 -14 -9
-26 -9 -17 0 -18 3 -8 14 12 15 44 10 34 -5z m530 -4 c3 -8 1 -15 -4 -15 -6 0
-10 7 -10 15 0 8 2 15 4 15 2 0 6 -7 10 -15z m-380 -75 c16 -6 26 -17 26 -30
0 -26 -20 -25 -54 1 -21 17 -25 24 -14 30 16 11 12 11 42 -1z m144 -42 c-2
-13 -10 -23 -18 -23 -8 0 -16 10 -18 23 -3 17 2 22 18 22 16 0 21 -5 18 -22z
m-130 -80 c2 -10 -3 -27 -12 -39 l-15 -22 -12 26 c-6 14 -9 33 -5 42 8 21 40
15 44 -7z m932 -106 c0 -26 -11 -34 -27 -21 -20 17 -16 39 7 39 13 0 20 -7 20
-18z m-594 -19 c3 -16 10 -39 15 -52 8 -19 5 -31 -16 -62 -14 -21 -25 -48 -25
-59 0 -11 -5 -20 -12 -20 -20 0 -48 32 -48 55 0 11 -5 26 -12 33 -9 9 -7 16
10 32 12 12 22 30 22 41 0 57 54 83 66 32z m-351 -6 c0 -26 -20 -25 -23 2 -3
16 1 22 10 19 7 -3 13 -12 13 -21z m-157 -51 c3 -44 -19 -63 -53 -48 -30 14
-32 35 -5 62 32 32 56 26 58 -14z m991 -70 c15 -18 -11 -46 -44 -46 -29 0 -38
13 -30 40 8 24 56 28 74 6z m-695 -12 c17 -44 1 -78 -31 -66 -16 5 -17 54 -1
70 16 16 25 15 32 -4z m-234 -214 c0 -5 -5 -10 -11 -10 -5 0 -7 5 -4 10 3 6 8
10 11 10 2 0 4 -4 4 -10z m-116 -57 c-8 -67 -26 -93 -64 -93 -42 0 -58 25 -38
58 9 15 27 32 40 39 13 7 33 21 43 33 10 11 20 20 22 20 2 0 0 -26 -3 -57z
m174 35 c19 -19 14 -35 -10 -34 -16 1 -24 8 -26 24 -4 24 16 30 36 10z m395
-72 c11 -11 12 -26 4 -75 -5 -34 -15 -62 -23 -65 -9 -3 -14 2 -14 14 0 11 -4
20 -9 20 -4 0 -11 19 -14 41 -8 64 22 99 56 65z m757 -7 c0 -5 -7 -9 -15 -9
-15 0 -20 12 -9 23 8 8 24 -1 24 -14z m-294 -24 c29 -27 72 -42 150 -51 50 -6
52 -8 63 -46 7 -22 10 -43 6 -46 -3 -3 -26 2 -51 11 -26 9 -50 14 -55 11 -5
-3 -9 -25 -9 -50 0 -40 -2 -44 -24 -44 -13 0 -30 -10 -38 -22 -14 -21 -15 -21
-34 -2 -10 11 -30 28 -43 39 l-24 20 7 -49 c9 -59 -5 -55 -34 9 -25 54 -28
165 -6 165 8 0 25 18 37 40 13 22 24 40 25 40 2 0 15 -11 30 -25z m-833 -58
c23 -18 28 -31 31 -76 2 -41 8 -59 24 -72 19 -15 21 -24 16 -63 -5 -35 -3 -46
7 -47 28 -3 44 3 65 22 27 25 34 24 34 -5 0 -37 -10 -56 -30 -56 -22 0 -50
-70 -50 -125 0 -44 19 -119 44 -177 13 -30 14 -42 4 -63 -17 -39 -54 -34 -68
10 -6 19 -10 42 -9 52 7 42 -41 82 -72 62 -11 -7 -11 -12 -2 -27 9 -16 7 -26
-15 -59 -15 -22 -39 -51 -54 -65 -29 -26 -36 -52 -18 -63 6 -3 10 -13 10 -21
0 -23 -54 -17 -79 10 -29 31 -40 93 -17 102 29 11 20 64 -18 104 -34 34 -35
36 -24 85 13 62 25 76 57 64 21 -8 23 -13 16 -55 -5 -33 -2 -55 10 -80 9 -19
18 -34 20 -34 2 0 9 17 15 39 6 24 17 41 29 44 11 3 27 22 36 43 13 33 14 46
4 81 -12 45 -41 79 -58 69 -16 -10 -43 39 -39 71 2 18 14 34 35 48 38 24 39
28 13 66 -64 89 2 182 83 116z m222 -97 c-8 -39 -31 -34 -26 6 4 38 11 48 23
36 6 -6 7 -24 3 -42z m355 -168 c0 -28 15 -59 43 -89 23 -26 17 -50 -15 -62
-34 -12 -58 -2 -58 26 0 13 -5 43 -11 67 -8 32 -7 54 1 87 12 43 12 43 26 19
7 -14 13 -35 14 -48z m-219 -100 c5 -23 2 -45 -8 -69 -8 -20 -12 -45 -10 -55
4 -14 -8 -33 -40 -65 -37 -38 -44 -51 -39 -73 4 -24 2 -27 -20 -22 -23 4 -24
8 -22 72 1 54 -3 74 -21 104 -12 20 -26 36 -31 36 -19 0 -21 44 -5 81 17 37
19 38 63 35 24 -2 59 2 76 9 35 15 43 8 57 -53z m204 -243 c4 -6 4 -13 0 -17
-4 -4 -10 -1 -12 6 -3 6 -9 10 -14 6 -5 -3 -9 0 -9 5 0 14 27 14 35 0z m-605
-244 c0 -8 -4 -15 -10 -15 -5 0 -10 7 -10 15 0 8 5 15 10 15 6 0 10 -7 10 -15z
m-100 -105 c0 -5 -7 -10 -15 -10 -8 0 -15 5 -15 10 0 6 7 10 15 10 8 0 15 -4
15 -10z m-1570 -20 c0 -19 -18 -19 -23 -1 -3 14 -1 18 9 14 8 -3 14 -9 14 -13z
m2350 -50 c0 -5 -2 -10 -4 -10 -3 0 -8 5 -11 10 -3 6 -1 10 4 10 6 0 11 -4 11
-10z m-764 -97 c9 -12 13 -27 9 -33 -9 -14 -41 -13 -57 3 -7 6 -19 12 -27 12
-7 0 -17 10 -22 22 -6 18 -3 27 19 43 l26 21 19 -23 c10 -13 25 -33 33 -45z
m746 7 c20 -159 20 -165 5 -203 -39 -92 -90 -2 -82 145 4 85 19 120 50 116 16
-2 21 -13 27 -58z m-259 -27 c9 -3 17 0 17 6 0 6 9 11 19 11 16 0 18 -5 11
-34 -9 -42 -18 -56 -33 -56 -7 0 -26 -12 -43 -28 -28 -26 -31 -26 -48 -11 -15
15 -16 23 -6 60 20 79 12 74 83 52z m405 -57 c-4 -29 -34 -32 -41 -5 -8 31 10
54 30 37 8 -6 13 -21 11 -32z m-1170 -21 c17 -10 32 -23 32 -27 0 -4 6 -8 13
-8 11 0 12 -11 7 -44 -8 -51 -24 -76 -50 -76 -22 0 -30 18 -23 53 5 24 2 27
-20 27 -27 0 -31 7 -42 77 l-7 43 29 -13 c15 -6 43 -21 61 -32z m230 -63 c2
-15 -2 -22 -12 -22 -11 0 -16 9 -16 26 0 31 23 28 28 -4z m639 -378 c2 -7 -9
-17 -24 -22 -38 -15 -59 -33 -67 -60 -7 -21 -50 -41 -63 -29 -25 26 80 131
126 125 13 -2 26 -8 28 -14z m-497 -89 c0 -14 -4 -25 -10 -25 -11 0 -14 33 -3
43 11 11 13 8 13 -18z m466 -104 c11 -33 22 -47 31 -44 7 3 13 -1 13 -10 0
-17 -27 -30 -42 -21 -5 3 -17 -1 -27 -10 -25 -22 -119 -56 -137 -49 -21 8 -17
55 9 85 63 75 88 95 123 97 7 1 20 -21 30 -48z m142 -104 c1 -15 3 -31 3 -35
3 -22 -3 -30 -20 -25 -34 9 -36 93 -2 90 11 -1 18 -11 19 -30z m417 -68 c-4
-11 -12 -18 -17 -17 -16 6 -19 40 -6 56 10 11 13 11 20 -3 5 -8 6 -25 3 -36z
m-155 9 c-1 -63 -62 -97 -76 -42 -7 27 0 39 38 59 35 19 38 18 38 -17z m-323
-90 c13 -12 23 -31 23 -42 0 -28 -39 -66 -68 -66 -15 0 -26 -7 -29 -20 -3 -10
-25 -29 -50 -41 -41 -20 -46 -20 -61 -6 -14 15 -14 18 2 36 10 11 27 23 36 26
22 7 52 68 48 97 -2 16 4 24 22 29 42 12 53 10 77 -13z m183 -4 c0 -8 -5 -12
-10 -9 -6 4 -8 11 -5 16 9 14 15 11 15 -7z m-2390 -49 c0 -8 -4 -15 -10 -15
-5 0 -10 7 -10 15 0 8 5 15 10 15 6 0 10 -7 10 -15z m776 -196 c56 -81 52
-176 -11 -269 -18 -27 -35 -55 -38 -62 -3 -10 -9 -8 -25 5 -11 10 -42 24 -69
31 -63 16 -66 38 -18 148 44 100 54 168 31 222 -9 21 -16 40 -16 43 0 13 125
-87 146 -118z m-767 -145 c-13 -26 -35 -30 -59 -13 -13 9 -12 10 3 5 9 -3 17
-2 17 2 0 4 10 23 22 42 21 34 22 34 26 11 2 -13 -2 -35 -9 -47z m646 -178 c7
-6 10 -16 9 -21 -2 -6 3 -19 11 -29 14 -19 15 -19 28 -2 11 16 17 17 33 7 18
-12 18 -12 -3 -8 -13 3 -23 1 -23 -4 0 -5 12 -9 28 -10 25 0 26 -1 5 -9 -12
-5 -50 -5 -85 -1 -38 5 -51 9 -33 11 17 1 33 2 38 1 15 -2 6 20 -10 26 -47 16
-76 72 -31 57 12 -3 27 -12 33 -18z"/>
<path d="M2211 4871 c-10 -20 -4 -77 12 -111 10 -20 25 -28 79 -40 38 -8 70
-21 73 -29 6 -15 29 -263 27 -296 0 -11 -3 -40 -7 -65 -6 -37 -3 -49 14 -69
25 -28 26 -37 6 -44 -8 -4 -14 -19 -15 -34 -3 -211 -5 -221 -27 -245 -18 -19
-23 -36 -23 -76 0 -29 -4 -52 -9 -52 -5 0 -16 -15 -25 -32 -8 -18 -16 -27 -16
-20 0 6 -7 12 -15 12 -8 0 -16 14 -20 35 -3 19 -7 51 -10 70 -3 19 -10 35 -16
35 -7 0 -9 -45 -7 -127 l3 -126 132 -1 c73 0 135 2 138 6 3 3 -5 23 -20 43
-26 40 -35 111 -15 131 16 16 29 71 20 80 -5 5 -11 50 -14 101 -3 53 -12 105
-20 122 -25 47 -15 109 23 143 34 31 37 44 16 72 -19 25 -19 45 2 134 16 70
16 73 -4 100 -16 22 -19 38 -15 90 4 54 7 62 25 62 38 0 96 34 96 55 0 40 -41
56 -172 66 -67 6 -141 14 -165 18 -35 7 -44 5 -51 -8z"/>
<path d="M1978 4835 c-2 -3 -449 -6 -991 -6 l-987 -2 0 -77 0 -78 51 -12 c49
-12 51 -11 78 14 15 14 32 26 38 26 6 0 16 6 22 14 16 20 93 26 191 15 108
-11 148 -11 172 2 11 6 161 12 366 14 191 3 381 9 422 15 41 5 93 10 115 10
22 1 154 6 293 12 l252 11 0 24 c0 21 -10 30 -22 18z"/>
<path d="M5030 4720 c-30 -4 -73 -12 -95 -18 -131 -35 -164 -42 -198 -47 -48
-8 -184 -124 -232 -199 -39 -62 -82 -175 -89 -237 -3 -25 -15 -85 -26 -135
-11 -49 -20 -105 -20 -124 0 -19 -10 -53 -22 -75 -21 -37 -23 -52 -22 -194 0
-130 -2 -151 -13 -135 -15 20 -33 79 -33 107 0 10 5 27 10 38 16 29 -6 24 -26
-7 -33 -49 -11 -189 42 -281 28 -48 81 -93 110 -93 11 0 34 -16 53 -35 18 -19
36 -35 41 -35 8 0 -34 103 -91 225 -20 43 -23 64 -22 145 1 52 2 149 3 215 0
66 5 132 11 147 9 23 14 25 40 18 15 -5 50 -10 76 -11 47 -3 50 -1 45 30 -5
26 -111 39 -141 16 -12 -8 -13 2 -7 67 4 42 13 99 21 126 21 69 73 144 115
164 76 37 103 47 111 42 14 -8 50 6 43 17 -3 6 -1 15 4 22 5 7 12 21 15 32 5
19 5 19 12 -2 8 -26 29 -32 116 -37 80 -5 120 -13 174 -36 46 -20 144 -116
162 -160 7 -16 17 -31 23 -35 21 -13 10 -57 -21 -86 l-31 -29 -55 17 c-46 15
-62 15 -113 5 -86 -18 -147 -46 -155 -73 -14 -44 20 -40 149 15 53 24 110 13
164 -31 32 -26 42 -41 42 -64 0 -23 4 -29 21 -29 11 0 34 -9 49 -20 28 -20 29
-24 25 -81 -3 -34 -12 -76 -21 -95 -11 -24 -17 -64 -18 -123 -1 -76 2 -92 19
-111 28 -31 33 -151 10 -228 -23 -75 -36 -100 -80 -153 -41 -49 -71 -68 -116
-74 -53 -7 -109 -59 -92 -87 6 -12 83 -10 83 2 0 20 47 10 59 -13 15 -29 54
-26 76 6 13 19 15 18 64 -32 27 -28 57 -51 65 -51 9 0 16 -4 16 -10 0 -5 9
-10 20 -10 13 0 20 7 20 20 0 14 7 20 21 20 19 0 20 -4 14 -89 -6 -73 -4 -95
10 -122 23 -44 75 -99 95 -99 8 0 26 -7 38 -16 l23 -15 -6 68 c-3 37 -8 109
-11 158 -4 59 -12 101 -24 122 -29 50 0 28 50 -37 24 -33 49 -59 55 -57 17 6
7 125 -13 164 -7 12 -10 40 -7 62 4 34 0 47 -32 88 -20 26 -54 67 -75 91 -34
38 -38 47 -32 75 7 35 13 40 97 93 50 31 61 34 87 26 58 -21 109 9 146 84 19
38 32 54 46 54 31 0 75 52 92 110 32 106 16 241 -36 311 -32 43 -44 80 -68
203 -33 170 -79 242 -238 374 -125 104 -248 146 -452 155 -52 3 -120 1 -150
-3z m608 -251 c23 -29 55 -90 50 -95 -4 -3 -99 122 -107 140 -6 15 37 -19 57
-45z m142 -641 c0 -62 -12 -76 -40 -48 -32 32 -15 89 28 90 8 0 12 -15 12 -42z
m-193 -100 c-3 -8 -6 -5 -6 6 -1 11 2 17 5 13 3 -3 4 -12 1 -19z m-1230 -230
c-3 -8 -6 -5 -6 6 -1 11 2 17 5 13 3 -3 4 -12 1 -19z"/>
<path d="M8190 4400 c-11 -11 -20 -29 -20 -41 0 -30 28 -72 56 -86 23 -11 27
-9 45 20 26 44 25 92 -3 111 -30 21 -54 20 -78 -4z"/>
<path d="M1050 4339 c-15 -6 -54 -8 -93 -4 l-68 7 -35 -41 c-20 -23 -44 -41
-55 -41 -10 0 -19 -3 -19 -7 -1 -5 -5 -27 -9 -50 l-8 -43 36 -10 c36 -9 342
-5 394 6 15 3 27 10 27 15 0 5 15 9 33 8 30 -1 30 -1 7 -8 -45 -14 186 -24
360 -17 90 4 166 9 168 10 1 2 5 16 8 30 5 27 4 27 -46 20 l-50 -7 0 32 c0 24
-6 34 -25 41 -14 5 -38 19 -54 31 -24 18 -37 20 -75 15 -25 -4 -48 -12 -52
-17 -4 -7 -12 -5 -22 5 -37 32 -68 30 -108 -8 -25 -23 -52 -39 -76 -43 -27 -4
-38 -11 -38 -23 0 -9 -7 -17 -15 -17 -8 0 -15 6 -15 14 0 7 -15 19 -32 27 -18
7 -48 30 -66 50 -35 39 -36 39 -72 25z"/>
<path d="M8058 4306 c-24 -18 -23 -51 2 -76 22 -22 31 -23 79 -14 25 5 31 11
31 33 0 42 -26 71 -63 71 -18 0 -40 -7 -49 -14z"/>
<path d="M6685 4206 c-13 -19 -14 -29 -6 -45 11 -20 63 -37 81 -26 17 10 11
54 -10 75 -27 27 -46 25 -65 -4z"/>
<path d="M7796 4141 c-44 -9 -59 -27 -44 -54 31 -59 188 -49 188 13 0 38 -65
57 -144 41z"/>
<path d="M6335 4090 c-16 -18 -16 -20 0 -37 24 -23 45 -25 52 -5 4 9 11 20 16
23 17 12 -1 39 -26 39 -13 0 -32 -9 -42 -20z"/>
<path d="M6356 3994 c-22 -31 -26 -92 -6 -105 25 -15 73 -10 120 14 35 17 46
28 48 50 3 23 -2 30 -30 41 -18 7 -51 16 -73 19 -35 5 -42 3 -59 -19z"/>
<path d="M5077 3958 c-2 -7 -6 -17 -7 -23 -6 -22 -42 -36 -87 -33 -39 2 -47 6
-45 20 2 16 0 16 -23 6 -14 -6 -25 -16 -25 -22 0 -6 -3 -20 -5 -31 -4 -15 2
-25 25 -37 18 -10 41 -18 53 -18 21 0 20 1 -3 17 -14 9 -27 18 -29 19 -1 1 0
8 4 14 4 6 13 2 24 -12 17 -20 22 -21 53 -11 21 6 42 7 51 2 19 -11 62 4 92
33 l22 21 -33 34 c-35 34 -58 42 -67 21z"/>
<path d="M1962 3924 c-20 -14 -22 -24 -22 -103 0 -99 -16 -131 -64 -131 -31 0
-129 -30 -122 -37 2 -3 61 -1 130 3 l126 7 0 138 c0 148 -3 155 -48 123z m38
-214 c0 -5 -4 -10 -10 -10 -5 0 -10 5 -10 10 0 6 5 10 10 10 6 0 10 -4 10 -10z"/>
<path d="M4594 3851 c9 -14 -15 -27 -73 -39 -30 -7 -60 -17 -68 -23 -15 -13
-18 -33 -3 -24 6 4 24 -1 41 -9 32 -16 79 -12 79 6 0 5 4 7 9 4 5 -4 7 2 4 13
-6 24 13 36 32 21 12 -10 15 -9 15 4 0 10 5 14 10 11 6 -3 10 -1 10 4 0 6 -7
11 -15 11 -8 0 -15 4 -15 9 0 5 -7 12 -16 15 -8 3 -13 2 -10 -3z"/>
<path d="M6282 3764 c-16 -11 -22 -24 -20 -42 3 -25 7 -27 59 -30 43 -2 61 1
80 17 l24 19 -24 26 c-29 31 -84 35 -119 10z"/>
<path d="M4855 3630 c-18 -40 -20 -42 -55 -36 -42 6 -65 -7 -73 -43 -5 -22 -4
-23 31 -17 20 3 51 8 69 10 84 11 113 52 71 101 l-24 27 -19 -42z"/>
<path d="M6585 3662 c-6 -4 -15 -20 -20 -37 -13 -39 -41 -44 -56 -11 -7 14
-20 26 -29 26 -15 0 -93 -77 -110 -110 -20 -39 12 -80 62 -80 30 0 46 14 82
70 15 25 29 35 48 35 42 1 59 22 52 64 -7 42 -15 53 -29 43z"/>
<path d="M953 3653 c9 -2 25 -2 35 0 9 3 1 5 -18 5 -19 0 -27 -2 -17 -5z"/>
<path d="M6252 3575 c-16 -34 -15 -52 3 -58 20 -8 54 23 57 53 3 20 -2 26 -23
28 -19 2 -28 -3 -37 -23z"/>
<path d="M4622 3558 c5 -15 28 -18 29 -3 0 6 -7 12 -17 13 -10 3 -15 -1 -12
-10z"/>
<path d="M2230 3461 c0 -36 4 -43 28 -53 59 -26 80 -47 87 -90 4 -23 11 -49
15 -58 19 -38 33 -111 35 -175 1 -38 5 -91 9 -117 4 -26 3 -64 -3 -85 -6 -21
-11 -72 -12 -113 -2 -107 -14 -171 -33 -182 -9 -5 -16 -20 -16 -33 0 -41 -17
-28 -36 26 -19 52 -40 72 -54 50 -11 -19 -19 -323 -9 -343 7 -14 15 -15 41 -7
18 5 72 9 120 9 65 0 90 4 102 16 21 20 20 29 -4 62 -10 15 -25 48 -31 73 -11
41 -10 49 4 64 21 20 19 4 21 162 2 120 1 135 -17 154 -33 35 -28 101 13 180
4 9 4 22 -1 30 -15 24 -10 83 12 124 19 37 19 46 9 139 -11 99 -11 100 12 118
13 10 38 25 57 34 21 8 31 18 25 23 -5 5 -76 11 -159 15 -82 3 -165 8 -182 12
-33 6 -33 6 -33 -35z"/>
<path d="M4765 3468 c-76 -19 -107 -35 -123 -61 -16 -26 -15 -29 8 -73 14 -25
35 -55 48 -66 12 -12 22 -27 22 -34 0 -14 38 -30 47 -20 4 3 1 6 -7 6 -10 0
-10 3 0 15 10 12 10 15 -1 15 -11 0 -11 3 1 11 12 8 9 10 -12 6 -20 -3 -28 0
-28 10 0 21 26 44 42 38 8 -3 45 -1 83 4 104 15 103 -4 -1 -29 -62 -15 -70
-22 -49 -40 13 -11 14 -10 9 4 -5 12 0 16 18 16 36 0 40 -10 15 -32 l-22 -19
23 6 c57 16 132 56 149 80 10 14 30 42 46 62 39 52 35 66 -26 91 -57 24 -167
28 -242 10z m173 -76 c-3 -24 -7 -27 -44 -29 -22 0 -62 -8 -88 -17 -26 -9 -57
-16 -71 -16 -13 0 -25 -6 -28 -12 -6 -18 -23 0 -30 32 -5 20 -1 28 21 39 27
14 106 26 195 28 47 2 48 1 45 -25z m52 -2 c0 -11 -7 -20 -15 -20 -8 0 -15 9
-15 20 0 11 7 20 15 20 8 0 15 -9 15 -20z"/>
<path d="M0 3435 l0 -35 61 0 c53 0 64 3 89 29 l29 29 -31 6 c-17 3 -57 6 -89
6 l-59 0 0 -35z"/>
<path d="M4601 3384 c0 -11 3 -14 6 -6 3 7 2 16 -1 19 -3 4 -6 -2 -5 -13z"/>
<path d="M6583 3233 c-21 -8 -15 -41 10 -58 13 -8 38 -20 56 -26 30 -11 36
-10 48 7 22 30 11 48 -42 66 -56 18 -55 18 -72 11z"/>
<path d="M6540 3073 c-64 -21 -113 -46 -117 -60 -6 -16 49 -43 87 -43 42 0
108 36 122 66 20 43 -22 60 -92 37z"/>
<path d="M4585 2917 c-27 -83 -30 -105 -31 -232 l-1 -140 44 -44 c43 -44 52
-47 33 -11 -6 11 -6 21 -1 24 5 3 7 92 4 203 -2 109 -4 219 -4 246 1 26 -3 47
-7 47 -4 0 -20 -42 -37 -93z"/>
<path d="M1550 2933 c-8 -2 -31 -24 -50 -48 -19 -25 -47 -50 -62 -56 -28 -12
-34 -24 -20 -46 14 -23 62 -32 200 -39 147 -7 272 7 272 30 0 20 -44 56 -68
56 -12 0 -22 3 -22 8 0 4 -13 22 -29 40 -21 22 -39 32 -59 32 -16 0 -46 7 -65
15 -35 15 -66 17 -97 8z"/>
<path d="M4010 2780 c-30 -18 -64 -46 -109 -89 -51 -48 -51 -48 -61 -31 -5 8
-17 7 -46 -5 -33 -14 -59 -19 -115 -24 -3 -1 -4 -11 -2 -24 3 -17 -2 -26 -21
-35 -14 -6 -26 -17 -26 -25 0 -7 -9 -20 -20 -30 -11 -9 -20 -24 -20 -32 0 -8
-5 -15 -11 -15 -6 0 -8 -8 -4 -19 3 -12 0 -21 -9 -24 -11 -4 -13 -1 -9 10 4
10 2 14 -6 12 -7 -3 -12 -8 -11 -13 1 -5 -3 -12 -9 -15 -6 -4 -13 -20 -14 -37
-4 -30 -35 -80 -78 -126 -17 -18 -29 -48 -39 -95 -13 -70 -38 -133 -52 -133
-4 0 -4 -7 -1 -17 4 -11 3 -14 -5 -9 -8 5 -12 0 -12 -14 0 -13 -4 -19 -11 -14
-7 4 -9 0 -5 -12 6 -21 -18 -59 -32 -50 -5 3 -21 -5 -36 -17 -42 -36 -35 -107
17 -164 11 -13 17 -26 13 -30 -4 -5 -16 2 -26 15 -10 12 -26 22 -35 22 -14 0
-15 -3 -5 -15 6 -8 9 -19 6 -24 -4 -5 7 -25 22 -43 16 -18 33 -44 37 -58 6
-20 -2 -15 -39 25 l-47 50 7 -45 c4 -25 7 -53 6 -63 0 -9 3 -15 9 -12 5 4 9 2
9 -4 0 -5 -5 -13 -10 -16 -14 -8 -10 -132 4 -144 6 -4 19 -7 30 -5 11 1 20 -5
23 -17 3 -10 8 -17 12 -15 4 3 8 -4 8 -15 1 -15 -5 -19 -31 -19 -40 0 -50 -8
-34 -28 10 -11 9 -17 -2 -26 -21 -16 -13 -76 12 -100 17 -16 48 -74 48 -90 0
-8 -30 0 -42 12 -16 16 -28 15 -28 -3 0 -8 -6 -12 -14 -9 -32 12 -39 -65 -9
-98 9 -10 13 -21 10 -25 -4 -3 -7 -1 -7 5 0 7 -5 12 -12 12 -6 0 -4 -8 6 -19
16 -18 16 -20 0 -40 -10 -11 -22 -17 -27 -14 -5 3 -6 -3 -3 -14 4 -12 -1 -28
-14 -43 -24 -28 -27 -65 -5 -56 21 8 19 -7 -4 -21 -24 -15 -31 -8 -31 33 0 20
7 38 18 46 13 10 18 30 20 88 1 41 6 76 11 78 10 3 2 52 -9 52 -5 0 -12 12
-17 27 -8 24 -11 18 -22 -47 -7 -41 -13 -128 -14 -192 -1 -64 -6 -120 -10
-124 -4 -4 -7 -37 -7 -73 0 -37 -4 -102 -10 -146 -8 -64 -17 -193 -23 -305 0
-8 -10 -22 -21 -32 -21 -17 -20 -17 17 -18 21 0 36 4 33 9 -10 16 23 79 51 99
l28 20 20 -40 c11 -23 32 -54 46 -69 l27 -29 166 0 c151 0 202 8 145 23 -16 4
-20 11 -16 26 4 16 -2 25 -25 38 -68 41 -125 174 -115 270 14 134 128 251 231
237 l45 -7 74 77 c50 50 83 76 98 76 13 0 38 -16 60 -40 21 -22 46 -40 55 -40
10 0 14 -5 11 -14 -10 -27 66 -35 133 -16 19 6 49 13 65 16 17 3 34 9 40 15
18 18 35 9 35 -19 0 -30 -40 -62 -79 -62 -27 0 -72 -21 -65 -31 2 -4 -17 -18
-43 -30 -40 -19 -44 -23 -25 -26 12 -3 37 0 55 6 17 5 51 13 75 16 34 5 42 4
42 -9 0 -8 -4 -18 -10 -21 -5 -3 -10 -13 -10 -21 0 -32 -58 -68 -105 -66 -23
1 -33 -5 -42 -25 -7 -15 -13 -33 -13 -40 0 -7 -37 -51 -82 -97 -46 -47 -108
-112 -139 -146 -51 -56 -57 -60 -81 -51 -15 5 -29 18 -32 28 -3 10 -28 41 -55
69 -26 28 -54 59 -60 70 -10 15 -11 15 -7 2 3 -9 12 -52 21 -95 23 -112 23
-111 190 -114 132 -2 191 -12 180 -30 -3 -4 0 -11 6 -15 8 -4 7 -9 -2 -15 -14
-8 9 -13 51 -10 10 0 11 -1 3 -5 -23 -10 -13 -23 23 -30 19 -4 38 -13 41 -20
4 -11 35 -14 142 -14 122 1 134 2 117 15 -11 8 -16 15 -12 15 5 0 3 6 -3 14
-11 13 -65 30 -87 27 -6 -1 -17 6 -24 14 -10 13 -9 15 9 15 11 0 21 5 21 11 0
7 -10 9 -26 5 -42 -11 -79 2 -104 37 -13 18 -17 26 -9 20 18 -18 49 -16 49 2
0 8 10 30 22 49 l22 33 205 7 c113 3 227 9 252 12 l46 6 10 81 c5 47 6 100 1
126 -5 25 -10 54 -11 64 -1 9 -4 17 -8 17 -3 0 -11 18 -18 40 -7 22 -16 38
-20 35 -22 -13 -45 64 -28 92 4 6 11 53 17 104 26 235 79 494 109 539 38 55
43 83 32 165 -8 55 -8 89 0 118 8 32 7 48 -6 83 -13 36 -14 49 -4 83 l12 40
-60 58 c-33 32 -70 77 -82 101 -36 71 -78 194 -86 251 -6 46 -14 60 -49 95
-53 51 -90 116 -106 183 -11 50 -13 52 -53 58 -23 4 -78 22 -122 40 -44 18
-106 39 -138 46 -74 16 -88 31 -57 64 24 26 11 35 -20 15z m-680 -1135 c0 -5
-5 -3 -10 5 -5 8 -10 20 -10 25 0 6 5 3 10 -5 5 -8 10 -19 10 -25z m-80 -79
c0 -3 -4 -8 -10 -11 -5 -3 -10 -1 -10 4 0 6 5 11 10 11 6 0 10 -2 10 -4z m981
-397 c24 -26 27 -33 16 -50 -11 -17 -27 -24 -49 -20 -5 0 -8 -4 -8 -9 0 -14
-27 -41 -63 -64 -26 -16 -31 -16 -62 -2 -18 9 -46 16 -62 16 l-28 -1 23 -18
c12 -11 22 -24 22 -30 0 -8 15 -10 49 -5 42 5 51 3 70 -17 11 -12 22 -35 22
-51 1 -15 2 -34 3 -40 3 -27 -58 -68 -102 -68 -25 0 -40 8 -60 32 -54 63 -55
65 -35 95 14 22 15 26 3 21 -51 -19 -58 -18 -78 7 -11 14 -30 25 -41 25 -30 0
-93 -34 -111 -60 -8 -12 -25 -36 -37 -53 -13 -17 -23 -34 -23 -38 0 -13 -48
-57 -70 -64 -17 -6 -20 -2 -20 28 0 20 10 48 24 68 14 19 37 52 51 74 15 22
46 54 69 70 22 16 49 40 59 52 33 41 103 74 176 84 39 6 94 18 123 29 78 27
105 25 139 -11z m126 -92 c-6 -15 -16 -27 -20 -27 -4 0 -19 -11 -33 -25 -25
-25 -25 -25 -19 -3 11 37 35 69 58 77 28 11 29 10 14 -22z m-1206 -358 c-29
-18 -33 -24 -29 -56 4 -31 3 -33 -9 -17 -17 23 -17 81 0 87 6 3 26 6 42 6 l30
1 -34 -21z m14 -117 c-8 -15 -24 -38 -36 -52 -17 -20 -19 -21 -13 -5 4 11 7
32 7 46 0 16 8 29 21 35 31 15 38 6 21 -24z m141 13 c-8 -8 -19 -15 -24 -15
-6 0 -19 -12 -30 -27 -11 -16 -23 -25 -27 -21 -7 7 44 62 66 71 25 10 31 7 15
-8z m57 -12 c-7 -2 -21 -2 -30 0 -10 3 -4 5 12 5 17 0 24 -2 18 -5z m-43 -17
c0 -11 -19 -15 -25 -6 -3 5 1 10 9 10 9 0 16 -2 16 -4z m-95 -56 c-27 -12 -43
-12 -25 0 8 5 22 9 30 9 10 0 8 -3 -5 -9z m72 4 c-3 -3 -12 -4 -19 -1 -8 3 -5
6 6 6 11 1 17 -2 13 -5z m798 -459 c19 -15 18 -15 -12 -1 -17 9 -35 21 -39 27
-8 13 21 -1 51 -26z"/>
<path d="M4055 1060 c3 -5 8 -10 11 -10 2 0 4 5 4 10 0 6 -5 10 -11 10 -5 0
-7 -4 -4 -10z"/>
<path d="M6433 2734 c-45 -23 -44 -51 3 -60 45 -8 84 11 84 42 0 36 -35 43
-87 18z"/>
<path d="M1941 2617 c-12 -23 -26 -64 -31 -92 -4 -27 -15 -88 -24 -135 -9 -46
-12 -88 -7 -93 4 -4 41 -7 82 -5 l74 3 -2 130 c-3 147 -9 195 -25 195 -6 0
-18 9 -27 19 -17 19 -18 18 -40 -22z"/>
<path d="M759 2329 l-64 -28 83 -1 c72 0 82 2 82 18 0 9 -8 22 -18 29 -15 9
-31 5 -83 -18z"/>
<path d="M4681 2266 c-1 -78 7 -92 107 -198 36 -38 60 -55 73 -53 10 2 21 0
24 -5 3 -5 -4 -7 -15 -5 -16 3 -18 1 -10 -13 22 -38 50 -67 50 -52 0 12 2 13
9 1 5 -8 11 -9 15 -3 3 6 -12 44 -34 86 -22 41 -40 84 -40 95 0 10 -15 31 -32
45 -18 14 -41 32 -50 41 -10 8 -25 15 -33 15 -8 0 -15 7 -15 15 0 13 -11 19
-31 17 -4 -1 -5 6 -2 16 2 9 0 28 -6 42 -8 20 -10 12 -10 -44z m224 -294 c-3
-3 -11 0 -18 7 -9 10 -8 11 6 5 10 -3 15 -9 12 -12z"/>
<path d="M6566 2178 c-10 -40 -6 -64 13 -82 18 -17 20 -17 40 3 23 23 27 52
11 82 -15 27 -56 25 -64 -3z"/>
<path d="M2614 2149 c-3 -5 -10 -6 -16 -3 -6 4 -8 2 -5 -3 4 -6 -7 -16 -23
-23 -37 -15 -218 -6 -286 15 l-44 13 0 -87 0 -88 98 -6 c146 -10 250 -9 232 3
-11 7 -11 10 -2 10 7 0 10 5 7 10 -14 23 9 47 79 80 41 19 75 40 76 47 0 15
-37 36 -50 28 -6 -3 -16 -3 -22 2 -19 11 -37 12 -44 2z"/>
<path d="M1760 2101 c-107 -4 -190 -9 -184 -13 6 -4 56 -12 110 -19 55 -6 110
-16 124 -23 14 -7 53 -21 88 -31 34 -10 62 -22 62 -27 0 -4 18 -8 40 -8 l41 0
-3 63 -3 62 -40 1 c-22 0 -128 -2 -235 -5z"/>
<path d="M4940 1899 c0 -5 -4 -7 -10 -4 -17 10 -12 -4 32 -86 l42 -79 28 27
c32 30 36 46 11 36 -12 -5 -15 -2 -10 10 4 11 1 17 -7 17 -7 0 -23 11 -36 25
-13 14 -30 23 -37 21 -10 -4 -12 1 -7 19 3 14 3 25 0 25 -3 0 -6 -5 -6 -11z
m35 -68 c-6 -5 -25 10 -25 20 0 5 6 4 14 -3 8 -7 12 -15 11 -17z"/>
<path d="M5216 1815 c-9 -35 -1 -43 14 -15 8 14 8 26 2 32 -6 6 -12 0 -16 -17z"/>
<path d="M3180 1765 c7 -9 15 -13 17 -11 7 7 -7 26 -19 26 -6 0 -6 -6 2 -15z"/>
<path d="M90 1730 c0 -5 7 -10 16 -10 8 0 12 5 9 10 -3 6 -10 10 -16 10 -5 0
-9 -4 -9 -10z"/>
<path d="M5030 1705 c0 -8 2 -15 4 -15 2 0 6 7 10 15 3 8 1 15 -4 15 -6 0 -10
-7 -10 -15z"/>
<path d="M5295 1484 c-35 -18 -60 -40 -82 -76 -18 -28 -33 -54 -33 -59 0 -5
-5 -9 -10 -9 -6 0 -18 -17 -28 -37 -22 -48 -82 -110 -66 -69 3 8 -4 35 -16 61
-18 39 -19 51 -10 81 14 40 6 70 -21 84 -14 8 -20 8 -23 -2 -14 -44 -19 -80
-20 -134 0 -49 5 -69 23 -96 24 -35 50 -44 63 -24 4 6 8 -1 8 -16 0 -18 5 -28
14 -28 8 0 18 -9 21 -21 9 -29 19 -15 20 29 2 43 68 203 95 227 12 11 46 17
119 22 102 6 116 10 103 29 -6 9 -96 64 -104 64 -2 0 -26 -12 -53 -26z"/>
<path d="M4813 1450 c0 -30 2 -43 4 -27 2 15 2 39 0 55 -2 15 -4 2 -4 -28z"/>
<path d="M475 1356 c-16 -12 -18 -19 -10 -41 10 -27 40 -54 48 -45 2 3 7 26 9
53 5 39 3 47 -11 47 -10 0 -26 -6 -36 -14z"/>
<path d="M263 1332 c-30 -8 -53 -20 -53 -28 0 -10 13 -12 53 -7 61 7 60 6 55
31 -3 18 -5 18 -55 4z"/>
<path d="M1000 1314 c0 -21 4 -33 10 -29 6 3 10 12 10 20 0 7 6 16 13 18 9 4
8 8 -3 16 -25 17 -30 13 -30 -25z"/>
<path d="M340 1330 c0 -5 5 -10 10 -10 6 0 10 5 10 10 0 6 -4 10 -10 10 -5 0
-10 -4 -10 -10z"/>
<path d="M386 1331 c-3 -5 1 -11 9 -14 9 -4 12 -1 8 9 -6 16 -10 17 -17 5z"/>
<path d="M5364 1313 c-12 -2 -32 -16 -45 -30 l-24 -26 29 19 c16 10 61 24 100
30 l71 11 -55 0 c-30 0 -65 -2 -76 -4z"/>
<path d="M1093 1258 c-13 -6 -23 -15 -23 -20 0 -13 10 -10 37 12 28 22 21 25
-14 8z"/>
<path d="M435 1201 c-4 -12 5 -29 25 -51 25 -27 33 -30 45 -20 14 12 13 15 -5
35 -11 12 -20 29 -20 38 0 23 -37 22 -45 -2z"/>
<path d="M3170 1211 c0 -8 -8 -20 -17 -27 -16 -12 -15 -12 7 -7 24 6 25 6 7
-14 -17 -19 -17 -22 -1 -37 22 -23 38 -15 42 21 2 18 -4 38 -17 54 -13 15 -20
19 -21 10z"/>
<path d="M879 1193 c-1 -5 -1 -11 0 -15 0 -4 -13 -18 -29 -32 -36 -30 -37 -39
-8 -58 21 -14 22 -18 9 -41 -8 -14 -21 -29 -29 -32 -19 -7 -72 42 -72 66 0 9
-9 28 -20 42 -11 14 -20 32 -20 41 0 19 -5 20 -31 6 -10 -6 -19 -16 -19 -23 0
-7 -9 -23 -21 -36 -12 -12 -25 -37 -30 -55 -7 -25 -14 -32 -31 -32 -13 1 -23
-4 -23 -11 0 -6 -3 -15 -8 -19 -9 -9 -9 -48 0 -57 4 -4 19 5 35 20 25 23 31
26 48 15 11 -7 37 -12 58 -12 32 0 41 -5 51 -26 17 -38 -11 -68 -56 -61 -29 5
-34 3 -40 -21 -10 -44 -29 -51 -59 -24 -10 10 -40 30 -65 44 -43 25 -47 26
-63 10 -13 -14 -20 -14 -36 -4 -17 10 -20 10 -20 -3 0 -9 8 -18 18 -22 67 -24
91 -78 46 -108 -27 -17 -54 -10 -54 14 0 22 -32 38 -92 45 -54 6 -64 -2 -59
-51 2 -25 -1 -33 -14 -33 -8 0 -18 6 -21 14 -8 22 -44 7 -44 -18 0 -28 41 -43
95 -36 22 3 47 3 55 -1 26 -11 130 2 130 17 0 23 64 84 78 75 11 -6 10 -15 -6
-41 -23 -36 -19 -55 15 -87 30 -29 49 -29 56 -2 5 20 10 21 79 14 78 -7 108
-21 134 -60 20 -30 59 -35 49 -6 -4 13 2 23 21 35 15 10 23 23 20 32 -5 14 24
20 64 14 26 -4 66 -38 67 -58 2 -22 -50 -42 -106 -42 -28 0 -31 -3 -25 -24 4
-19 -6 -35 -63 -90 -80 -77 -141 -126 -158 -126 -7 0 -18 -6 -24 -14 -17 -20
7 -35 62 -40 26 -3 54 -9 63 -14 13 -7 10 -12 -19 -30 -47 -27 -101 -16 -139
29 -25 29 -31 32 -55 23 -42 -14 -44 -63 -4 -97 34 -28 38 -37 18 -37 -8 0
-23 -10 -35 -23 -19 -20 -20 -26 -8 -48 7 -15 10 -33 5 -44 -4 -11 -8 -23 -8
-27 -1 -5 116 -8 258 -8 l259 0 6 48 c3 26 10 105 15 177 6 72 15 156 21 187
6 31 10 72 9 90 -1 18 1 43 5 56 9 28 -1 62 -18 62 -8 0 -19 20 -25 46 -12 45
-11 46 29 94 22 26 40 52 40 57 0 6 -11 15 -25 21 -14 6 -25 16 -25 20 0 5
-13 23 -30 40 -16 18 -30 41 -30 51 0 14 -8 21 -27 23 -20 2 -29 9 -31 24 -4
30 44 43 65 17 8 -10 12 -12 8 -5 -4 7 5 26 19 43 39 46 30 72 -9 29 -26 -29
-55 -26 -55 5 0 19 -9 29 -35 42 -22 10 -35 24 -35 35 0 11 -4 17 -9 14 -5 -3
-11 1 -15 9 -6 15 -25 21 -27 8z m69 -251 c-4 -21 -48 -27 -48 -7 0 9 6 22 13
29 15 17 39 1 35 -22z m136 -398 c3 -9 6 -23 5 -32 0 -11 -2 -12 -6 -4 -2 6
-13 12 -24 12 -12 0 -19 7 -19 20 0 24 35 28 44 4z m-239 -194 c8 -27 -14 -59
-26 -37 -9 16 -1 57 11 57 5 0 12 -9 15 -20z"/>
<path d="M1590 1167 c0 -20 -47 -57 -73 -57 -27 0 -38 -8 -54 -37 -15 -25 -16
-65 -7 -176 6 -63 10 -77 28 -87 27 -14 56 -105 56 -173 0 -28 8 -64 20 -87
11 -22 20 -48 20 -58 0 -11 8 -41 19 -68 39 -104 64 -271 43 -296 -5 -7 -13
-39 -17 -70 l-7 -58 216 0 216 0 -6 33 c-3 17 -10 54 -15 80 -5 26 -9 76 -9
110 0 35 -7 88 -15 120 -8 31 -12 70 -9 87 4 17 2 30 -3 30 -6 0 -13 41 -16
91 -4 49 -11 98 -16 107 -5 10 -17 62 -26 117 -21 122 -77 248 -113 253 -22 3
-31 27 -12 34 19 6 -43 69 -92 94 -52 26 -128 33 -128 11z"/>
<path d="M360 1133 c-26 -12 -31 -17 -17 -20 22 -6 25 -81 2 -89 -21 -8 -19
-26 3 -22 9 2 17 10 17 18 0 19 42 25 61 9 21 -17 55 14 36 33 -7 7 -12 20
-12 30 0 10 -6 18 -14 18 -7 0 -20 9 -27 20 -13 18 -16 18 -49 3z"/>
<path d="M89 1119 c-23 -14 5 -35 31 -23 20 9 20 9 2 21 -11 7 -24 8 -33 2z"/>
<path d="M586 1101 c-4 -7 -5 -15 -2 -18 9 -9 19 4 14 18 -4 11 -6 11 -12 0z"/>
<path d="M148 1071 c-4 -27 -1 -30 29 -33 38 -5 38 -6 18 32 -20 38 -42 38
-47 1z"/>
<path d="M5190 1092 c0 -18 22 -62 32 -62 16 0 8 37 -12 55 -11 10 -20 13 -20
7z"/>
<path d="M290 1020 c0 -5 4 -10 9 -10 6 0 13 5 16 10 3 6 -1 10 -9 10 -9 0
-16 -4 -16 -10z"/>
<path d="M18 939 c-15 -16 -18 -39 -18 -135 l0 -117 52 5 c49 5 79 25 77 52 0
6 -3 5 -6 -2 -3 -9 -14 1 -30 28 -20 32 -22 44 -13 55 10 12 7 21 -14 45 -19
24 -24 38 -19 60 6 34 -4 37 -29 9z m42 -173 c0 -6 -7 -1 -15 10 -8 10 -15 23
-15 28 0 6 7 1 15 -10 8 -10 15 -23 15 -28z"/>
<path d="M5289 900 c-20 -21 -14 -37 23 -56 36 -19 39 -17 21 16 -8 16 -13 19
-14 10 -1 -8 -4 -1 -8 15 -5 28 -7 29 -22 15z"/>
<path d="M5022 707 c-1 -32 -6 -56 -11 -53 -16 10 -20 -126 -4 -157 10 -21 13
-53 11 -113 -3 -82 -3 -84 20 -84 21 0 23 3 17 33 -4 17 -12 35 -18 38 -13 9
-2 90 14 100 8 4 10 11 7 15 -7 6 17 64 26 64 6 0 -14 -81 -25 -102 -6 -11 -9
-22 -6 -24 2 -2 17 24 32 58 15 34 39 74 53 88 l24 25 -4 -27 c-6 -35 8 -27
17 9 8 35 23 53 43 53 21 0 41 30 41 60 0 23 -1 23 -13 8 -7 -10 -16 -15 -19
-11 -4 3 -7 0 -7 -8 -1 -8 -7 -3 -15 11 -10 18 -14 20 -15 8 0 -9 -7 -24 -16
-33 -15 -14 -17 -14 -29 1 -10 15 -13 13 -19 -17 -4 -19 -10 -29 -14 -24 -9
13 -35 13 -44 1 -14 -21 -37 24 -41 80 l-3 59 -2 -58z"/>
<path d="M5302 708 c-14 -14 -16 -28 -3 -28 5 0 11 9 14 20 6 23 5 24 -11 8z"/>
<path d="M4711 594 c1 -27 5 -60 10 -74 5 -16 6 1 2 45 -7 83 -13 99 -12 29z"/>
<path d="M4822 570 c0 -19 2 -27 5 -17 2 9 2 25 0 35 -3 9 -5 1 -5 -18z"/>
<path d="M4877 548 c8 -57 13 -61 13 -10 0 22 -4 43 -9 46 -5 4 -7 -12 -4 -36z"/>
<path d="M740 527 c-66 -31 -81 -61 -32 -64 15 -1 41 -5 58 -8 l30 -7 -3 48
c-2 27 -5 49 -6 50 -1 1 -22 -7 -47 -19z"/>
<path d="M455 497 c-4 -10 -5 -21 -1 -24 10 -10 18 4 13 24 -4 17 -4 17 -12 0z"/>
<path d="M568 443 c-23 -6 -24 -65 -2 -84 17 -14 93 -14 107 0 4 4 -10 20 -33
36 -22 15 -40 34 -40 41 0 14 -3 15 -32 7z"/>
<path d="M240 400 c0 -5 5 -10 10 -10 6 0 10 5 10 10 0 6 -4 10 -10 10 -5 0
-10 -4 -10 -10z"/>
<path d="M473 343 c-16 -6 -17 -33 -3 -33 11 0 26 28 19 34 -2 2 -10 1 -16 -1z"/>
<path d="M5145 320 c-3 -5 -1 -10 4 -10 6 0 11 5 11 10 0 6 -2 10 -4 10 -3 0
-8 -4 -11 -10z"/>
<path d="M240 234 c0 -3 5 -14 10 -25 13 -23 45 -26 36 -3 -3 9 -6 20 -6 25 0
5 -9 9 -20 9 -11 0 -20 -3 -20 -6z"/>
<path d="M462 188 c-17 -17 -15 -35 5 -42 18 -7 34 11 30 33 -3 19 -20 24 -35
9z"/>
<path d="M4276 121 c-19 -7 -19 -8 0 -15 10 -4 39 -10 64 -12 42 -4 44 -3 26
11 -11 8 -25 15 -32 15 -7 0 -18 2 -26 4 -7 3 -22 1 -32 -3z"/>
<path d="M253 103 c-14 -5 -18 -43 -5 -43 4 -1 24 -3 45 -6 37 -6 38 -5 28 15
-10 17 -43 43 -53 40 -2 0 -9 -3 -15 -6z"/>
<path d="M4285 80 c-3 -5 -1 -10 4 -10 6 0 11 5 11 10 0 6 -2 10 -4 10 -3 0
-8 -4 -11 -10z"/>
<path d="M467 59 c-14 -8 -16 -14 -6 -25 20 -24 49 -17 49 11 0 27 -14 31 -43
14z"/>
<path d="M5300 39 c-96 -5 -303 -13 -460 -17 l-285 -9 230 -1 c246 -2 714 14
805 27 53 8 52 9 -30 8 -47 0 -164 -4 -260 -8z"/>
</g>
</svg>
