<?xml version="1.0" standalone="no"?>
<!DOCTYPE svg PUBLIC "-//W3C//DTD SVG 20010904//EN"
 "http://www.w3.org/TR/2001/REC-SVG-20010904/DTD/svg10.dtd">
<svg version="1.0" xmlns="http://www.w3.org/2000/svg"
 width="843.000000pt" height="884.000000pt" viewBox="0 0 843.000000 884.000000"
 preserveAspectRatio="xMidYMid meet">

<g transform="translate(0.000000,884.000000) scale(0.100000,-0.100000)"
fill="#000000" stroke="none">
<path d="M5215 8245 c-154 -53 -264 -75 -384 -75 -38 0 -73 -4 -76 -10 -3 -5
-3 -26 1 -45 5 -26 13 -37 30 -41 28 -7 30 -16 8 -50 -16 -23 -15 -28 9 -92
40 -105 41 -112 38 -205 -3 -85 -2 -90 24 -117 22 -23 25 -31 16 -48 -6 -11
-8 -28 -5 -36 3 -9 3 -24 -2 -33 -12 -28 -14 -195 -3 -230 9 -27 7 -35 -12
-57 -15 -17 -23 -41 -25 -69 -1 -23 -9 -113 -18 -201 -10 -87 -15 -160 -13
-162 2 -2 41 26 87 63 77 62 82 67 62 76 -22 10 -30 27 -13 27 6 0 36 21 68
48 99 80 92 76 99 58 4 -9 -5 -29 -21 -48 -24 -28 -25 -34 -11 -36 21 -5 113
54 133 85 8 12 22 23 29 23 8 0 14 4 14 9 0 5 13 17 29 28 99 64 172 115 202
141 19 16 53 40 76 53 61 35 191 160 135 130 -23 -12 -72 1 -72 20 0 26 42 66
82 79 57 19 153 110 153 147 0 14 7 29 15 33 89 43 113 58 120 76 6 16 21 23
55 29 26 3 49 4 52 1 9 -9 -18 -36 -56 -56 -20 -10 -62 -41 -94 -69 -32 -28
-67 -55 -77 -61 -24 -13 -27 -40 -5 -40 19 0 45 14 113 63 29 21 75 50 103 63
41 21 48 28 38 40 -9 11 -9 18 3 32 21 23 34 451 15 457 -7 2 -208 6 -447 9
-355 4 -442 2 -475 -9z"/>
<path d="M2996 8224 c-55 -38 -116 -51 -273 -59 -145 -7 -297 -24 -448 -51
-49 -9 -111 -18 -138 -21 -47 -6 -69 -19 -50 -32 6 -3 43 -35 83 -71 40 -36
83 -72 96 -79 12 -8 25 -25 29 -38 3 -13 11 -23 18 -23 7 0 32 -14 56 -32 34
-25 42 -36 38 -55 -4 -20 3 -27 47 -49 28 -14 74 -42 101 -62 76 -56 103 -68
118 -53 10 10 7 16 -13 29 -13 10 -51 41 -85 70 -33 28 -74 59 -91 67 -42 20
-60 43 -46 57 6 6 18 7 29 2 10 -4 27 -8 38 -8 10 -1 25 -12 31 -25 12 -23 85
-71 109 -71 22 0 39 -28 27 -43 -17 -20 100 -129 155 -145 44 -13 89 -62 80
-86 -8 -20 -54 -25 -77 -9 -38 27 -20 2 41 -55 33 -31 73 -64 87 -72 15 -8 64
-42 109 -75 45 -33 105 -76 134 -95 28 -19 59 -43 67 -52 9 -10 20 -18 25 -18
4 0 21 -15 37 -33 33 -38 115 -86 126 -74 4 4 -2 21 -14 37 -21 28 -29 60 -16
60 7 0 59 -42 113 -89 13 -11 32 -23 42 -26 32 -10 20 -32 -13 -26 -25 4 4
-27 91 -98 72 -59 101 -90 107 -113 7 -23 17 -34 32 -36 21 -3 22 0 22 57 0
49 -4 65 -20 78 -24 21 -26 46 -5 63 8 7 15 23 15 36 0 17 6 24 20 24 11 0 20
7 20 15 0 8 -7 15 -16 15 -10 0 -14 6 -10 15 3 9 0 15 -9 15 -8 0 -15 3 -16 8
-3 46 -10 101 -14 119 -3 12 0 25 5 28 6 4 8 15 5 25 -4 11 0 22 11 28 13 7
10 12 -20 30 -31 19 -36 26 -36 60 0 21 -4 42 -10 48 -6 6 -6 21 0 43 11 38 0
73 -28 93 -15 10 -19 23 -16 52 1 23 -3 48 -12 60 -8 11 -14 30 -14 42 0 12
-13 46 -28 75 -16 30 -34 68 -40 84 -12 31 -15 36 -69 118 -36 54 -39 67 -22
99 9 17 8 24 -6 34 -16 12 -24 36 -42 128 -5 26 -3 28 16 23 19 -5 22 -2 19
21 -3 27 -4 27 -103 33 -55 4 -159 7 -230 8 -125 1 -132 0 -169 -25z m379
-223 c3 -5 1 -12 -5 -16 -5 -3 -10 1 -10 9 0 18 6 21 15 7z m55 -91 c0 -5 -4
-10 -10 -10 -5 0 -10 5 -10 10 0 6 5 10 10 10 6 0 10 -4 10 -10z m140 -211 c0
-5 -7 -9 -15 -9 -8 0 -15 7 -15 15 0 9 6 12 15 9 8 -4 15 -10 15 -15z"/>
<path d="M3837 8200 c-3 -13 1 -33 10 -46 9 -14 11 -24 5 -24 -6 0 -16 8 -21
18 -8 13 -10 5 -11 -35 0 -62 9 -89 44 -126 17 -18 28 -44 32 -76 5 -36 14
-57 35 -76 22 -23 26 -31 17 -45 -18 -28 2 -83 32 -91 14 -4 20 -7 15 -8 -6
-1 -11 -20 -12 -43 -3 -63 -31 -76 -54 -24 -7 15 -8 7 -3 -29 3 -27 7 -68 8
-90 1 -23 6 -47 11 -54 7 -12 14 -105 15 -189 0 -13 6 -33 13 -45 12 -19 15
-67 7 -94 -7 -26 4 -128 16 -151 17 -32 18 -59 3 -64 -12 -4 -13 -66 -4 -236
7 -112 7 -114 -14 -108 -65 18 -61 19 -56 -11 2 -15 7 -45 10 -66 3 -21 13
-41 21 -44 20 -7 18 -53 -2 -53 -14 0 -14 -1 0 -16 10 -10 17 -36 18 -72 3
-101 -3 -133 -28 -142 -35 -13 -244 -22 -244 -11 0 6 -15 11 -34 11 -19 0 -37
4 -40 8 -3 5 -58 12 -123 15 -66 4 -119 11 -121 17 -2 6 -37 10 -80 10 l-77
-1 40 -18 40 -18 -35 -8 c-19 -5 -65 -8 -101 -7 -57 1 -66 -1 -65 -16 1 -12
-8 -18 -31 -20 -38 -4 -43 10 -10 26 17 10 -1 11 -88 7 -253 -11 -385 -9 -385
5 0 6 9 10 19 10 11 0 23 5 27 11 12 19 -19 30 -66 23 -25 -3 -67 -5 -95 -5
-39 2 -52 -2 -65 -19 -14 -18 -30 -22 -110 -26 -52 -3 -107 -10 -122 -14 -19
-6 -32 -5 -41 4 -16 16 -164 25 -457 27 l-225 2 -7 -29 c-3 -16 -12 -55 -18
-86 -9 -46 -15 -58 -30 -58 -10 0 -22 5 -25 10 -4 6 -11 8 -16 5 -15 -10 -10
-48 11 -83 27 -43 25 -61 -6 -72 -21 -8 -25 -15 -20 -33 3 -12 6 -28 6 -34 0
-9 16 -13 46 -13 39 0 45 2 35 14 -8 10 -9 16 -1 21 14 9 32 -5 26 -20 -6 -18
10 -22 111 -30 77 -7 82 -6 102 17 17 19 28 23 61 20 40 -4 57 -22 20 -22 -24
0 -27 -15 -4 -24 9 -3 58 -6 110 -6 75 0 94 3 94 14 0 26 16 25 45 -2 29 -26
33 -27 181 -31 128 -3 153 -1 167 13 20 20 28 20 21 1 -5 -12 5 -15 52 -15 33
0 69 -3 82 -6 16 -5 22 -3 20 7 -5 21 104 25 135 4 29 -18 187 -18 187 1 0 7
9 14 20 17 14 4 20 0 20 -12 0 -16 20 -17 269 -15 232 2 272 4 294 19 16 10
38 15 59 12 30 -4 31 -5 11 -12 -41 -14 -24 -25 40 -26 157 -2 336 -10 372
-17 l40 -7 9 -89 c8 -75 7 -91 -6 -100 -8 -6 -13 -17 -10 -24 2 -7 -3 -24 -12
-37 -12 -18 -16 -49 -16 -119 0 -62 -4 -96 -12 -98 -14 -5 -24 -118 -10 -118
5 0 13 11 16 25 4 14 10 25 15 25 15 0 32 -78 25 -119 -6 -37 -5 -41 15 -41
17 0 21 -6 21 -30 0 -36 -13 -39 -28 -7 -11 23 -10 -63 4 -239 6 -85 -2 -174
-16 -174 -5 0 -10 10 -12 22 -5 32 -26 33 -40 3 -10 -22 -9 -32 6 -59 14 -26
15 -38 6 -61 -13 -33 -7 -55 14 -55 8 0 18 -5 21 -11 11 -17 25 -212 16 -223
-5 -6 -11 -44 -14 -83 l-6 -73 56 0 c31 0 106 5 167 12 117 12 166 7 166 -16
0 -18 -22 -26 -75 -26 -53 0 -63 -12 -30 -34 54 -35 19 -61 -97 -72 -42 -3
-89 -2 -110 4 -57 16 -78 6 -78 -34 0 -38 13 -43 48 -18 32 22 161 29 237 14
97 -20 110 -19 110 10 0 29 11 40 43 40 20 0 22 4 22 60 0 53 -2 60 -20 60
-28 0 -25 15 7 38 l26 19 3 174 c2 96 6 193 9 216 4 34 2 41 -10 37 -22 -9
-21 98 0 116 20 17 17 157 -2 165 -7 2 -13 11 -13 19 0 9 6 13 13 10 11 -4 14
171 6 436 -1 13 -7 33 -15 44 -8 11 -14 36 -13 56 0 31 1 32 9 13 5 -13 14
-23 20 -23 10 0 16 81 12 145 -4 49 9 210 17 224 6 9 54 10 222 2 118 -6 349
-15 514 -21 165 -6 332 -13 370 -14 39 -2 81 -8 94 -15 12 -7 30 -10 39 -6 9
3 73 6 142 5 237 -4 597 11 619 24 12 8 126 15 321 21 165 5 182 5 212 -1 35
-7 51 2 39 24 -13 26 -2 42 29 42 32 0 29 -7 65 140 9 36 22 85 30 110 101
313 98 300 58 300 -16 0 -46 -5 -68 -12 -22 -6 -110 -14 -195 -18 -85 -4 -164
-11 -175 -16 -18 -7 -19 -6 -5 10 13 17 11 18 -55 11 -74 -7 -124 -21 -140
-41 -5 -7 -23 -14 -40 -17 -87 -16 -118 -27 -140 -47 -18 -17 -28 -20 -37 -12
-20 16 -100 3 -105 -18 -5 -20 -67 -26 -108 -10 -22 8 -24 13 -15 30 11 20 9
20 -72 14 -46 -3 -96 -10 -113 -14 -16 -5 -77 -9 -134 -9 -71 0 -110 -4 -125
-14 -15 -10 -53 -14 -145 -12 -92 1 -132 -2 -153 -13 -22 -11 -35 -12 -51 -4
-54 26 -110 30 -180 12 -27 -7 -90 -10 -142 -8 -89 3 -121 11 -100 26 6 4 16
15 23 24 13 16 9 17 -54 13 -37 -3 -77 -12 -90 -20 -26 -17 -60 -20 -68 -6 -4
5 -22 5 -43 0 -52 -12 -220 -11 -228 1 -3 6 -2 90 4 188 6 97 15 278 21 402 6
124 16 272 21 330 5 58 11 187 13 287 2 100 7 186 10 191 3 5 -1 23 -10 41
-11 22 -15 57 -13 128 1 56 -5 132 -13 178 -11 52 -13 87 -7 103 6 17 5 30 -6
45 -8 12 -15 41 -15 64 l0 43 -74 0 c-48 0 -77 -4 -84 -13 -10 -11 -43 -146
-73 -297 -5 -24 -14 -49 -19 -54 -12 -12 -13 91 0 269 5 72 6 133 2 137 -4 4
-88 10 -188 14 l-181 7 -6 -23z m81 -28 c2 -7 -3 -12 -12 -12 -9 0 -16 7 -16
16 0 17 22 14 28 -4z m-5 -93 c14 -23 2 -49 -23 -49 -26 0 -48 49 -28 62 18
11 39 6 51 -13z m107 -760 c0 -10 -4 -19 -10 -19 -5 0 -10 12 -10 26 0 14 4
23 10 19 6 -3 10 -15 10 -26z m8 -951 c-4 -27 -28 -36 -28 -10 0 20 8 32 22
32 5 0 8 -10 6 -22z m3 -65 c0 -5 2 -25 5 -45 3 -21 0 -38 -5 -38 -13 0 -18 9
-26 53 -6 30 -4 37 9 37 9 0 16 -3 17 -7z m2683 -69 c8 -20 -34 -44 -66 -37
-43 8 -32 45 17 55 26 6 42 0 49 -18z m94 -21 c-4 -22 -22 -20 -26 1 -2 10 3
16 13 16 10 0 15 -7 13 -17z m-3208 -73 c0 -12 -26 -18 -110 -23 -36 -3 -73
-8 -82 -12 -10 -4 -18 -3 -18 3 0 19 75 41 143 41 37 1 67 -3 67 -9z m1028
-32 c-5 -15 -86 -29 -94 -17 -7 12 28 28 64 29 23 0 32 -4 30 -12z m87 1 c4
-6 5 -12 3 -15 -8 -7 -68 8 -68 17 0 13 58 11 65 -2z m1050 1 c3 -5 -1 -10
-10 -10 -9 0 -13 5 -10 10 3 6 8 10 10 10 2 0 7 -4 10 -10z m65 0 c0 -5 -11
-10 -25 -10 -14 0 -25 5 -25 10 0 6 11 10 25 10 14 0 25 -4 25 -10z m-1340
-10 c0 -5 -7 -10 -16 -10 -8 0 -12 5 -9 10 3 6 10 10 16 10 5 0 9 -4 9 -10z
m-2546 -95 c-6 -16 -24 -21 -24 -7 0 11 11 22 21 22 5 0 6 -7 3 -15z m246 5
c0 -11 -48 -25 -56 -17 -4 3 -3 10 1 16 8 14 55 14 55 1z m610 -10 c0 -5 -22
-10 -50 -10 -27 0 -50 5 -50 10 0 6 23 10 50 10 28 0 50 -4 50 -10z m135 0
c15 -6 8 -9 -27 -9 -27 -1 -48 4 -48 9 0 12 47 12 75 0z m-690 -241 c5 -5 -4
-9 -25 -9 -48 0 -81 10 -74 22 8 12 84 2 99 -13z m1750 -351 c9 -26 21 -158
14 -158 -18 0 -31 35 -36 99 -4 51 -3 71 6 71 6 0 14 -6 16 -12z m152 -584 c1
-19 -2 -34 -8 -34 -5 0 -9 19 -9 42 0 49 13 43 17 -8z m3 -129 c0 -25 -4 -45
-10 -45 -5 0 -10 20 -10 45 0 25 5 45 10 45 6 0 10 -20 10 -45z m262 -461 c-6
-45 -13 -64 -22 -64 -11 0 -14 73 -3 84 12 12 28 -1 25 -20z m-272 -60 c0 -13
-4 -24 -10 -24 -5 0 -10 14 -10 31 0 17 4 28 10 24 6 -3 10 -17 10 -31z"/>
<path d="M3620 8200 c-12 -8 -12 -10 3 -16 9 -3 25 -3 34 0 15 6 15 8 3 16 -8
6 -17 10 -20 10 -3 0 -12 -4 -20 -10z"/>
<path d="M7250 8186 c-5 -13 -14 -27 -20 -31 -7 -5 -2 -12 15 -21 35 -18 31
-19 44 17 17 50 -20 84 -39 35z"/>
<path d="M7090 8144 c-14 -19 -34 -36 -45 -38 -78 -17 -85 -16 -123 19 -41 36
-55 35 -76 -6 -6 -13 -22 -25 -34 -27 -12 -2 -33 -13 -45 -25 -13 -12 -52 -46
-88 -75 -95 -77 -201 -164 -237 -192 -31 -25 -55 -82 -151 -370 -11 -30 -31
-86 -45 -124 -32 -84 -32 -86 -2 -86 30 0 87 46 80 64 -3 8 10 28 28 45 36 34
51 39 42 16 -4 -8 -12 -15 -20 -15 -8 0 -14 -7 -14 -16 0 -12 6 -11 29 8 132
105 141 115 153 151 10 33 15 37 35 32 19 -4 40 8 108 67 79 69 108 109 68 93
-11 -4 -7 5 11 24 19 20 40 31 56 31 27 0 60 22 132 88 19 18 44 40 54 47 17
13 17 16 4 25 -13 9 -13 11 0 19 10 7 17 6 22 -2 10 -16 83 44 83 69 0 12 7
19 19 19 20 0 47 38 60 82 6 19 2 23 -26 31 -27 7 -34 14 -36 38 -5 44 -15 46
-42 8z m-600 -479 c0 -2 -10 -10 -22 -16 -21 -11 -22 -11 -9 4 13 16 31 23 31
12z"/>
<path d="M3582 8113 c-39 -8 -24 -44 24 -58 38 -11 42 -10 54 8 11 18 10 23
-10 39 -22 18 -26 19 -68 11z m48 -23 c0 -5 -7 -10 -16 -10 -8 0 -12 5 -9 10
3 6 10 10 16 10 5 0 9 -4 9 -10z"/>
<path d="M7346 8096 c8 -35 -15 -73 -103 -163 -228 -234 -295 -283 -322 -236
-8 16 -14 14 -48 -21 -25 -26 -31 -36 -18 -31 51 19 53 19 52 -19 -1 -20 -6
-36 -11 -36 -6 0 -45 -34 -87 -76 -79 -79 -104 -88 -116 -44 -3 11 -9 20 -14
20 -11 0 -8 -73 3 -81 12 -8 -149 -155 -304 -278 -65 -51 -118 -99 -118 -107
0 -16 -31 -19 -46 -4 -17 17 -32 -11 -27 -47 6 -36 14 -41 33 -18 41 50 67
-23 31 -88 -10 -18 -31 -73 -46 -120 -15 -48 -30 -89 -35 -92 -21 -13 -27 79
-9 151 12 47 5 71 -12 41 -19 -34 -29 -17 -23 38 5 38 3 55 -5 55 -6 0 -11 -6
-11 -13 0 -18 -57 -71 -99 -92 -18 -9 -36 -25 -38 -36 -3 -10 -9 -19 -14 -19
-5 0 -26 -15 -46 -32 -21 -18 -54 -42 -73 -52 -19 -10 -46 -29 -60 -41 -14
-12 -35 -28 -47 -34 -13 -6 -23 -19 -23 -29 -1 -16 -80 -80 -145 -116 -31 -18
-91 -58 -113 -76 -14 -12 -6 -34 9 -24 17 10 119 12 125 3 3 -6 15 -7 25 -4
11 4 26 2 33 -4 9 -8 18 -3 34 18 23 32 75 43 188 41 53 -1 66 2 89 24 18 17
33 23 44 18 20 -9 52 -9 67 1 7 4 43 14 80 23 38 8 78 21 89 28 11 7 35 16 52
19 18 4 74 26 125 51 120 57 122 57 159 44 28 -9 34 -8 46 7 8 12 32 22 66 26
28 4 64 11 80 14 22 6 27 4 27 -12 0 -18 8 -20 108 -21 115 -2 194 11 213 34
6 8 21 14 33 14 12 0 27 5 34 12 9 9 21 9 50 0 51 -16 92 -15 92 1 0 6 -7 25
-15 41 -20 38 -19 53 5 59 14 4 25 -1 33 -14 6 -10 18 -19 25 -19 26 0 76 155
113 352 7 41 20 70 45 99 19 22 34 43 34 45 0 12 -30 62 -44 73 -21 17 -21 90
0 119 21 30 34 28 34 -8 0 -20 5 -30 15 -30 8 0 15 1 15 3 0 1 14 35 30 76 37
91 38 118 5 133 -33 15 -32 44 2 53 32 8 98 73 108 106 4 13 19 45 33 71 24
46 24 49 8 67 -14 15 -15 24 -7 40 15 27 14 41 -3 35 -8 -3 -25 -26 -38 -52
-24 -47 -25 -47 -75 -47 -28 0 -54 -3 -58 -7 -4 -3 -9 -26 -11 -50 -8 -72 -14
-88 -29 -88 -8 0 -15 3 -16 8 -1 10 -7 51 -15 96 -5 31 -12 41 -40 52 -19 8
-34 19 -34 24 0 6 -18 10 -39 10 -22 0 -42 4 -45 9 -7 11 13 28 39 33 31 5 31
49 0 87 -33 38 -58 42 -49 7z m-761 -1326 c-3 -5 -10 -10 -16 -10 -5 0 -9 5
-9 10 0 6 7 10 16 10 8 0 12 -4 9 -10z m-95 -49 c0 -12 -29 -23 -41 -15 -18
10 -9 24 16 24 14 0 25 -4 25 -9z m-250 -116 c0 -8 -7 -15 -16 -15 -14 0 -14
3 -4 15 7 8 14 15 16 15 2 0 4 -7 4 -15z"/>
<path d="M1685 8024 c-33 -7 -72 -13 -87 -14 -15 0 -29 -4 -33 -10 -6 -9 11
-170 21 -192 12 -28 99 -89 120 -84 14 4 31 -5 55 -30 19 -20 26 -32 17 -29
-39 15 -14 -22 54 -80 103 -88 108 -91 118 -74 12 18 24 5 39 -41 9 -25 36
-54 96 -103 55 -44 85 -63 85 -53 0 9 -6 16 -14 16 -8 0 -16 7 -20 15 -8 22 5
18 44 -15 29 -24 32 -31 20 -39 -8 -6 -12 -12 -10 -14 45 -36 81 -57 100 -57
14 0 20 -5 17 -13 -7 -18 115 -127 141 -127 20 0 132 -100 132 -118 0 -4 27
-26 60 -47 32 -21 61 -44 64 -51 3 -7 17 -14 33 -16 20 -2 29 -9 31 -25 2 -15
26 -37 70 -66 37 -24 90 -67 119 -95 28 -27 96 -82 150 -121 54 -40 109 -81
123 -92 16 -12 33 -17 43 -13 27 10 21 18 -30 43 -45 22 -47 24 -28 38 15 11
35 13 81 8 40 -4 64 -3 69 4 11 19 25 12 25 -14 0 -17 -6 -25 -17 -25 -13 0
-14 -3 -5 -12 7 -7 56 -12 128 -14 105 -2 118 -5 140 -25 l24 -22 28 24 c15
13 29 25 31 26 2 1 -8 16 -23 33 -14 17 -26 35 -26 40 0 5 -43 44 -96 86 -54
43 -99 85 -101 94 -3 8 -30 35 -60 59 -44 35 -54 39 -48 22 4 -13 2 -21 -5
-21 -13 0 -67 38 -122 86 -23 21 -43 31 -55 28 -11 -3 -26 3 -37 15 -12 13
-14 21 -7 21 20 0 -17 31 -179 153 -85 63 -173 135 -195 158 -22 24 -30 35
-18 25 13 -11 29 -16 39 -12 15 6 14 9 -7 33 -13 14 -42 34 -64 44 -22 11 -55
35 -74 54 -25 25 -40 33 -56 29 -15 -4 -43 11 -101 54 -43 32 -98 71 -122 86
-23 15 -40 31 -37 36 3 5 -18 27 -47 50 -72 55 -75 58 -79 67 -4 9 -165 141
-257 212 -31 23 -59 46 -62 50 -3 3 -24 21 -46 39 -46 35 -60 37 -149 16z
m375 -364 c0 -5 -2 -10 -4 -10 -3 0 -8 5 -11 10 -3 6 -1 10 4 10 6 0 11 -4 11
-10z m226 -177 c-8 -8 -36 5 -36 17 0 7 6 7 21 0 11 -7 18 -14 15 -17z m512
-413 c44 -32 50 -40 30 -40 -16 0 -97 69 -82 70 6 0 30 -14 52 -30z m127 -100
c21 -23 4 -27 -19 -4 -18 17 -20 24 -8 24 5 0 17 -9 27 -20z m548 -312 c48
-25 160 -112 149 -116 -6 -2 -39 16 -73 40 -33 24 -72 50 -85 58 -39 24 -31
40 9 18z"/>
<path d="M3540 7994 c0 -3 5 -14 10 -25 7 -13 7 -19 0 -19 -20 0 -10 -27 15
-40 15 -8 25 -22 25 -36 0 -12 6 -24 13 -27 12 -5 26 -29 91 -167 12 -25 34
-51 49 -60 26 -14 29 -14 42 3 7 11 11 25 8 33 -3 8 0 14 6 14 6 0 11 5 11 10
0 6 -9 10 -20 10 -11 0 -20 5 -20 10 0 6 -11 15 -25 20 -17 6 -25 17 -25 33 0
13 -9 34 -19 46 -11 13 -18 28 -15 34 2 7 -9 21 -26 32 -17 11 -33 29 -36 40
-3 11 -9 29 -14 40 -4 11 -11 28 -14 38 -5 15 -56 26 -56 11z"/>
<path d="M7110 7885 c0 -8 7 -15 16 -15 14 0 14 3 4 15 -7 8 -14 15 -16 15 -2
0 -4 -7 -4 -15z"/>
<path d="M3700 7832 c0 -13 38 -23 46 -11 3 5 1 9 -5 9 -5 0 -16 3 -25 6 -9 3
-16 2 -16 -4z"/>
<path d="M1604 7686 c-3 -13 -1 -58 5 -100 17 -117 14 -176 -9 -221 -31 -58
-39 -115 -55 -370 -27 -413 -28 -418 -70 -480 -21 -29 -35 -59 -32 -67 4 -9 6
-10 6 0 1 14 37 16 46 2 3 -6 30 -7 64 -4 34 4 66 2 78 -4 12 -7 24 -7 29 -2
5 5 66 6 148 0 76 -4 145 -6 153 -3 7 3 22 -2 32 -11 13 -12 21 -14 26 -7 10
17 100 14 115 -4 6 -8 9 -19 6 -24 -11 -18 10 -20 40 -5 16 9 65 19 109 24 99
10 117 16 113 44 -3 20 -8 21 -108 21 -58 -1 -122 -5 -142 -9 -34 -8 -38 -7
-38 11 0 22 23 47 33 36 4 -3 9 2 13 11 7 18 35 21 50 6 10 -10 81 5 98 21 20
19 46 10 46 -15 0 -22 5 -25 48 -31 26 -3 59 -9 74 -14 19 -6 30 -5 38 4 6 7
24 18 39 25 24 9 35 9 60 -4 34 -18 37 -31 19 -71 -8 -17 -19 -25 -37 -26 -23
0 -24 -1 -6 -9 11 -4 51 -12 88 -18 53 -8 76 -7 100 3 18 7 46 11 63 8 32 -5
162 11 172 21 9 9 -20 37 -61 58 -54 27 -142 98 -140 112 2 9 -40 45 -96 81
-8 6 -35 25 -61 43 -25 18 -57 40 -72 50 -15 9 -29 24 -31 34 -3 9 -20 24 -38
33 -46 23 -109 85 -109 106 0 10 -19 34 -42 53 -43 37 -58 44 -58 26 0 -16
-30 -12 -36 5 -4 8 -45 45 -93 82 -178 140 -344 291 -334 306 9 15 13 77 5 77
-4 0 -12 -10 -17 -22 -6 -12 -16 -24 -23 -26 -7 -2 -48 30 -90 72 -43 42 -84
76 -90 76 -7 0 -12 16 -12 40 0 43 6 48 36 25 36 -27 38 -15 4 20 -40 41 -48
43 -56 11z"/>
<path d="M2393 7583 c9 -9 19 -14 23 -11 10 10 -6 28 -24 28 -15 0 -15 -1 1
-17z"/>
<path d="M6112 7588 c-19 -19 -14 -30 8 -18 11 6 20 15 20 20 0 14 -14 12 -28
-2z"/>
<path d="M2490 7511 c25 -23 49 -41 53 -41 15 0 2 23 -19 34 -10 6 -32 19 -49
29 -21 13 -17 7 15 -22z"/>
<path d="M6066 7542 c-3 -5 -25 -19 -50 -32 -39 -19 -53 -40 -28 -40 10 0 99
79 90 80 -4 0 -9 -4 -12 -8z"/>
<path d="M6021 7450 c-30 -23 -66 -40 -80 -40 -17 0 -41 -14 -69 -40 -23 -22
-49 -40 -57 -40 -17 0 -85 -58 -85 -72 0 -6 12 -8 26 -5 l25 4 -28 -29 c-15
-16 -91 -77 -168 -134 -77 -57 -153 -115 -169 -129 -16 -14 -34 -25 -40 -25
-6 0 -5 -4 3 -9 22 -14 -4 -41 -40 -41 -15 0 -31 -5 -35 -11 -9 -15 -124 -99
-136 -99 -5 0 -6 9 -3 21 6 18 4 19 -12 10 -26 -14 -103 -89 -103 -99 0 -5
-35 -36 -77 -69 -80 -63 -180 -169 -169 -180 3 -3 12 0 21 7 9 8 27 10 50 6
31 -6 35 -4 35 14 0 24 8 25 35 4 12 -9 30 -12 47 -9 17 4 36 1 48 -8 l21 -15
-22 -16 c-16 -11 -34 -14 -61 -10 -36 6 -38 5 -38 -21 0 -15 -7 -33 -17 -40
-13 -10 -3 -13 63 -19 103 -8 174 4 213 37 17 14 41 29 53 33 12 4 56 32 98
62 41 31 100 74 130 96 30 23 75 61 100 85 25 25 75 64 112 88 45 29 68 51 70
66 2 16 11 23 31 25 16 2 31 10 34 17 2 8 24 25 47 39 23 14 68 53 98 88 l56
64 -8 74 c-12 101 -12 202 0 220 16 24 26 -1 38 -101 9 -71 16 -95 34 -114 13
-14 26 -25 31 -25 12 0 8 151 -8 256 -8 54 -15 105 -15 112 0 21 -23 13 -79
-28z m-261 -381 c-46 -39 -70 -53 -70 -39 0 12 78 70 94 70 6 0 -5 -14 -24
-31z m-130 -98 c0 -5 -7 -11 -15 -15 -15 -5 -20 5 -8 17 9 10 23 9 23 -2z
m-547 -318 c-7 -2 -23 -13 -37 -24 -21 -17 -109 -78 -138 -95 -4 -3 -8 -1 -8
5 0 11 131 108 163 120 12 5 24 6 27 3 3 -2 0 -7 -7 -9z"/>
<path d="M3844 7349 c-10 -17 13 -36 27 -22 12 12 4 33 -11 33 -5 0 -12 -5
-16 -11z"/>
<path d="M2000 7333 c1 -14 70 -87 76 -80 8 8 -33 65 -57 77 -10 6 -19 7 -19
3z"/>
<path d="M6477 7302 c-15 -15 -27 -37 -27 -48 0 -15 8 -11 35 21 19 22 34 43
35 48 0 15 -17 6 -43 -21z"/>
<path d="M3865 7290 c3 -5 10 -10 16 -10 5 0 9 5 9 10 0 6 -7 10 -16 10 -8 0
-12 -4 -9 -10z"/>
<path d="M3209 7070 c26 -22 41 -26 41 -10 0 6 -12 15 -26 20 -37 15 -42 12
-15 -10z"/>
<path d="M5304 7080 c-26 -10 -40 -30 -22 -30 17 0 55 26 48 33 -3 3 -15 1
-26 -3z"/>
<path d="M3583 6754 c48 -30 94 -54 104 -52 27 5 -129 108 -163 108 -22 0 -12
-10 59 -56z"/>
<path d="M4899 6758 c-95 -67 -69 -80 29 -15 37 24 76 49 87 55 18 10 17 11
-11 12 -21 0 -53 -16 -105 -52z"/>
<path d="M2590 6790 c0 -5 12 -10 26 -10 14 0 23 4 19 10 -3 6 -15 10 -26 10
-10 0 -19 -4 -19 -10z"/>
<path d="M5895 6790 c-3 -5 3 -10 14 -10 12 0 21 5 21 10 0 6 -6 10 -14 10 -8
0 -18 -4 -21 -10z"/>
<path d="M7327 6663 c-13 -12 -7 -43 8 -43 8 0 15 6 15 13 0 18 -15 38 -23 30z"/>
<path d="M3800 6635 c0 -8 5 -15 10 -15 6 0 10 7 10 15 0 8 -4 15 -10 15 -5 0
-10 -7 -10 -15z"/>
<path d="M3925 6641 c-3 -5 -1 -12 5 -16 5 -3 10 1 10 9 0 18 -6 21 -15 7z"/>
<path d="M6744 6616 c-10 -8 -16 -17 -13 -20 3 -3 14 3 24 14 21 23 17 26 -11
6z"/>
<path d="M6470 6595 c-13 -14 -30 -25 -38 -25 -8 0 -27 -9 -43 -21 -29 -20
-127 -59 -151 -59 -6 0 -31 -9 -55 -21 -62 -30 -73 -89 -17 -89 13 0 24 -4 24
-10 0 -5 5 -10 10 -10 6 0 10 7 10 16 0 19 45 64 63 64 7 0 30 9 52 20 22 11
41 20 43 20 2 0 1 -14 -3 -31 -9 -42 10 -30 24 14 12 34 62 79 84 76 11 -2 47
11 87 31 29 14 17 35 -17 32 -19 -2 -33 1 -33 7 0 18 -15 12 -40 -14z"/>
<path d="M6670 6593 c-41 -14 -53 -70 -19 -91 18 -11 24 -11 40 4 32 29 16 99
-21 87z m20 -48 c0 -8 -4 -15 -10 -15 -5 0 -10 7 -10 15 0 8 5 15 10 15 6 0
10 -7 10 -15z"/>
<path d="M6784 6536 c-6 -17 2 -36 17 -36 12 0 12 37 -1 45 -6 3 -13 -1 -16
-9z"/>
<path d="M3712 6428 c3 -7 17 -15 33 -16 25 -3 27 -2 16 12 -16 19 -55 22 -49
4z"/>
<path d="M3500 6379 c-56 -10 -100 -32 -100 -50 0 -7 7 -8 18 -4 9 4 48 11 86
16 66 8 96 21 96 40 0 11 -25 10 -100 -2z"/>
<path d="M3718 6383 c6 -2 18 -2 25 0 6 3 1 5 -13 5 -14 0 -19 -2 -12 -5z"/>
<path d="M3050 6365 c-11 -13 -8 -15 20 -15 21 0 30 4 28 13 -7 18 -33 20 -48
2z"/>
<path d="M5345 6359 c-4 -6 -5 -13 -1 -16 8 -8 56 6 56 17 0 13 -47 13 -55 -1z"/>
<path d="M5792 6323 c2 -10 10 -18 18 -18 8 0 16 8 18 18 2 12 -3 17 -18 17
-15 0 -20 -5 -18 -17z"/>
<path d="M5740 6305 c0 -8 5 -15 10 -15 6 0 10 7 10 15 0 8 -4 15 -10 15 -5 0
-10 -7 -10 -15z"/>
<path d="M2307 6223 c-4 -3 -24 -9 -44 -13 -34 -7 -31 -8 25 -9 49 -1 62 2 62
14 0 15 -31 21 -43 8z"/>
<path d="M6328 6223 c6 -2 18 -2 25 0 6 3 1 5 -13 5 -14 0 -19 -2 -12 -5z"/>
<path d="M2175 6210 c-3 -5 -16 -10 -28 -11 -12 0 -16 -3 -9 -6 20 -8 83 7 77
18 -8 12 -32 12 -40 -1z"/>
<path d="M6243 6203 c9 -2 23 -2 30 0 6 3 -1 5 -18 5 -16 0 -22 -2 -12 -5z"/>
<path d="M4990 6180 c0 -5 7 -10 15 -10 8 0 15 5 15 10 0 6 -7 10 -15 10 -8 0
-15 -4 -15 -10z"/>
<path d="M1430 5716 c0 -17 14 -29 23 -20 8 8 -3 34 -14 34 -5 0 -9 -6 -9 -14z"/>
<path d="M1679 5709 c0 -2 -2 -16 -3 -31 -1 -16 -9 -35 -18 -44 -17 -18 -19
-17 -246 15 -49 7 -53 6 -58 -15 -3 -12 -19 -34 -35 -48 -25 -23 -29 -33 -29
-79 0 -28 -6 -62 -13 -73 -6 -12 -20 -35 -30 -53 -15 -26 -79 -253 -107 -381
-58 -257 -116 -409 -190 -500 -29 -35 -29 -35 -106 -33 -43 2 -82 -1 -88 -6
-6 -5 -26 -12 -44 -16 -41 -9 -50 -29 -26 -57 42 -46 104 -74 259 -118 44 -13
124 -42 178 -66 53 -24 108 -44 122 -44 28 0 33 21 10 40 -20 16 -19 56 1 64
26 10 34 7 34 -15 0 -11 5 -29 10 -39 9 -17 14 -14 58 32 26 28 62 57 80 65
17 7 32 18 32 23 0 6 11 10 25 10 39 0 94 32 180 105 43 37 89 71 102 76 17 6
23 16 23 39 0 23 5 31 25 36 13 3 46 21 72 40 26 19 57 34 69 34 11 0 33 14
50 31 28 30 115 79 142 79 12 0 210 91 277 128 17 9 53 28 82 43 29 15 67 41
85 58 18 17 43 31 56 31 32 0 59 16 114 66 26 24 52 44 58 44 5 0 29 14 53 31
30 22 50 29 70 26 23 -3 31 1 38 20 5 14 17 23 29 23 13 0 20 7 20 20 0 11 7
20 15 20 8 0 25 11 36 24 12 14 34 30 49 36 16 7 31 18 34 26 3 8 19 14 35 14
16 0 33 5 36 10 3 6 14 10 25 10 13 0 17 5 13 20 -3 13 1 22 11 26 9 3 24 22
33 41 9 21 29 41 46 48 19 8 25 15 18 20 -7 4 -25 1 -41 -5 -16 -7 -37 -10
-46 -6 -8 3 -23 2 -32 -3 -9 -4 -49 -11 -89 -14 -65 -5 -71 -4 -76 15 -4 12
-10 17 -17 13 -7 -4 -31 -9 -53 -10 -23 -2 -79 -6 -124 -10 -58 -6 -87 -5 -97
4 -10 9 -24 9 -59 -1 -58 -15 -111 -2 -115 30 -3 20 -9 22 -63 22 -45 0 -59
-3 -59 -14 0 -8 5 -18 10 -21 20 -12 -10 -36 -30 -25 -10 6 -74 10 -141 10
-173 0 -350 20 -356 39 -12 38 -35 81 -42 81 -5 0 -6 -21 -3 -47 l5 -46 -39 7
c-21 4 -71 9 -110 13 -65 5 -71 8 -88 36 -19 34 -10 47 32 47 12 0 22 5 22 10
0 6 -12 10 -27 10 -16 0 -38 3 -50 6 -13 4 -23 5 -24 3z m808 -635 c-3 -3 -12
-4 -19 -1 -8 3 -5 6 6 6 11 1 17 -2 13 -5z m-257 -104 c0 -5 -7 -10 -16 -10
-8 0 -12 5 -9 10 3 6 10 10 16 10 5 0 9 -4 9 -10z m130 -40 c0 -5 -7 -10 -15
-10 -8 0 -15 5 -15 10 0 6 7 10 15 10 8 0 15 -4 15 -10z m-280 -105 c0 -8 -7
-15 -15 -15 -16 0 -20 12 -8 23 11 12 23 8 23 -8z"/>
<path d="M2150 5635 c0 -8 9 -15 21 -15 11 0 30 -5 41 -11 13 -7 23 -8 30 -1
7 7 0 16 -20 26 -39 20 -72 21 -72 1z"/>
<path d="M3450 5595 c-16 -19 -1 -19 24 0 16 12 17 15 4 15 -8 0 -21 -7 -28
-15z"/>
<path d="M2847 5593 c-12 -11 -8 -23 7 -23 8 0 16 7 20 15 5 15 -14 21 -27 8z"/>
<path d="M3740 5540 c0 -5 7 -10 15 -10 8 0 15 5 15 10 0 6 -7 10 -15 10 -8 0
-15 -4 -15 -10z"/>
<path d="M3655 5519 c-22 -12 -50 -31 -62 -43 -11 -11 -47 -37 -78 -56 -67
-41 -165 -127 -165 -145 0 -7 -8 -15 -17 -19 -10 -3 -27 -11 -38 -18 -11 -7
-39 -25 -63 -39 -42 -27 -127 -95 -166 -135 -12 -11 -33 -24 -48 -28 -15 -3
-43 -20 -62 -36 -18 -17 -38 -30 -42 -30 -5 0 -32 -19 -59 -43 -28 -24 -66
-52 -85 -63 -19 -10 -56 -35 -82 -54 -25 -19 -61 -44 -80 -54 -26 -15 -29 -20
-15 -23 9 -3 17 -10 17 -16 0 -15 -48 -61 -72 -70 -10 -3 -18 -11 -18 -16 0
-5 -8 -7 -19 -4 -23 6 -110 -48 -104 -64 3 -8 -5 -13 -21 -13 -36 0 -83 -21
-147 -64 -30 -20 -61 -36 -70 -36 -39 0 -207 -105 -202 -127 1 -5 -19 -24 -45
-41 -26 -18 -88 -65 -138 -105 -50 -39 -100 -77 -110 -84 -18 -12 -18 -13 9
-38 35 -31 84 -33 120 -5 14 11 28 20 32 20 4 0 27 -18 51 -40 24 -22 49 -40
55 -40 7 0 26 16 43 36 35 40 52 41 100 3 17 -14 26 -30 26 -50 0 -26 3 -29
30 -29 32 0 135 49 210 99 25 17 50 31 56 31 5 0 23 14 40 31 16 16 78 63 139
104 60 40 153 107 204 149 52 42 101 76 108 76 11 0 56 37 237 192 27 24 75
60 105 82 31 21 76 59 101 85 25 25 109 100 188 166 78 65 142 121 142 123 0
2 -7 11 -16 19 -12 13 -15 28 -10 65 4 27 2 56 -3 67 -14 25 15 38 39 16 9 -8
20 -15 23 -15 4 0 7 47 7 104 0 102 1 105 27 124 l28 20 -24 26 c-29 31 -27
31 -76 5z m-729 -595 c-11 -7 -22 -11 -25 -8 -3 3 3 12 13 20 11 7 22 11 25 8
3 -3 -3 -12 -13 -20z m-796 -533 c-1 -20 -45 -51 -74 -51 -27 0 -18 29 15 49
29 18 59 19 59 2z m-140 -55 c0 -3 -4 -8 -10 -11 -5 -3 -10 -1 -10 4 0 6 5 11
10 11 6 0 10 -2 10 -4z m5 -56 c3 -6 -1 -13 -10 -16 -19 -8 -30 0 -20 15 8 14
22 14 30 1z"/>
<path d="M6879 5494 c-8 -10 -22 -14 -41 -10 -15 3 -30 1 -33 -4 -10 -16 -35
-12 -35 5 0 11 -12 15 -50 15 -45 0 -52 -3 -60 -25 -11 -29 -26 -31 -58 -9
-20 14 -30 13 -130 -14 -88 -25 -128 -30 -222 -31 -102 -1 -117 -3 -130 -21
-14 -18 -21 -19 -90 -10 -66 9 -130 12 -149 8 -3 -1 -21 2 -39 6 -18 4 -63 3
-102 -4 -63 -11 -71 -10 -89 7 -18 16 -49 21 -207 32 -156 11 -188 11 -195 -1
-12 -18 -5 -34 14 -30 8 1 18 -2 22 -8 3 -5 15 -10 27 -10 19 0 41 -14 112
-72 19 -16 39 -28 45 -28 6 0 11 -7 11 -15 0 -9 11 -20 24 -26 13 -6 27 -20
29 -30 4 -15 14 -19 46 -17 32 1 48 -5 69 -24 15 -14 39 -32 53 -39 15 -8 50
-33 79 -56 33 -28 62 -43 79 -43 16 0 36 -9 46 -20 10 -11 24 -20 32 -20 7 0
13 -6 13 -13 0 -7 17 -19 38 -26 20 -8 55 -27 76 -42 22 -16 44 -29 49 -29 5
0 59 -24 121 -54 62 -30 125 -58 142 -62 46 -11 122 -55 139 -80 9 -14 25 -24
38 -24 13 0 39 -12 58 -26 19 -14 53 -35 77 -45 35 -15 42 -23 37 -38 -3 -11
0 -24 7 -30 22 -19 89 -61 96 -61 4 0 16 30 26 68 27 92 69 195 82 199 7 2 15
-8 18 -23 l7 -27 23 22 c21 20 24 34 30 149 14 250 11 234 44 262 16 14 35 36
41 48 13 24 8 72 -7 72 -5 0 -16 6 -26 13 -18 13 -17 15 10 41 29 26 29 27 12
57 -10 17 -18 37 -18 45 0 24 -20 15 -31 -13 -6 -16 -17 -68 -24 -118 -25
-165 -67 -331 -130 -506 -13 -36 -26 -87 -30 -115 -10 -65 -21 -84 -50 -84
-37 0 -56 36 -45 85 5 22 10 57 10 77 0 21 14 90 30 155 44 167 58 252 66 383
8 135 13 153 40 122 37 -44 66 -18 80 68 7 43 6 44 -57 54 -27 5 -40 2 -50
-10z m-1051 -342 c3 -9 -3 -13 -19 -10 -12 1 -24 9 -27 16 -3 9 3 13 19 10 12
-1 24 -9 27 -16z m365 -229 c-7 -2 -19 -2 -25 0 -7 3 -2 5 12 5 14 0 19 -2 13
-5z m273 -111 c-22 -5 -30 3 -21 18 5 8 11 7 22 -2 15 -12 14 -13 -1 -16z"/>
<path d="M4734 5468 c-16 -17 -20 -32 -16 -59 6 -51 -12 -83 -38 -69 -12 6
-20 21 -20 35 0 35 -16 31 -23 -5 -8 -40 -2 -53 33 -68 25 -11 28 -17 20 -32
-13 -25 -1 -38 185 -195 213 -179 253 -214 310 -269 27 -27 76 -68 108 -92 31
-23 78 -61 105 -83 176 -150 210 -178 235 -189 27 -12 162 -114 182 -138 6 -7
60 -44 120 -84 61 -39 126 -86 145 -104 19 -18 49 -39 67 -45 17 -7 51 -31 75
-54 70 -66 73 -67 259 -67 150 0 169 2 177 18 5 9 24 61 43 115 l34 97 -45 40
c-25 21 -64 51 -87 66 -23 15 -40 31 -38 35 6 8 -118 100 -158 117 -15 7 -36
12 -46 12 -10 0 -43 18 -74 39 -31 22 -73 43 -94 46 -61 11 -72 15 -68 28 7
18 -81 70 -105 62 -12 -4 -20 -2 -20 5 0 6 -7 13 -16 17 -16 6 -74 61 -74 70
0 2 9 7 21 11 18 7 15 11 -28 34 -26 15 -61 40 -77 57 -17 17 -36 31 -43 31
-17 0 -84 42 -103 65 -8 10 -38 33 -65 51 -28 17 -57 39 -64 47 -7 9 -26 19
-43 22 -16 4 -50 27 -73 51 -24 24 -48 44 -53 44 -5 0 -15 7 -23 16 -15 18
-112 84 -125 84 -10 1 -54 36 -54 43 0 14 -105 107 -160 142 -98 62 -100 62
-185 69 -74 6 -81 5 -101 -16z m884 -546 c2 -7 -2 -10 -12 -6 -9 3 -16 11 -16
16 0 13 23 5 28 -10z m837 -538 c14 -9 25 -23 25 -30 0 -29 -61 -9 -80 26 -9
17 -8 20 10 20 11 0 32 -7 45 -16z m105 -114 c0 -5 -7 -10 -15 -10 -8 0 -15 5
-15 10 0 6 7 10 15 10 8 0 15 -4 15 -10z"/>
<path d="M3790 5403 c0 -73 29 -133 63 -133 6 0 -27 143 -36 158 -15 23 -27
12 -27 -25z"/>
<path d="M3691 5144 c-6 -15 -9 -29 -6 -32 8 -8 55 39 49 49 -10 17 -31 9 -43
-17z"/>
<path d="M2862 5088 c-7 -7 -12 -16 -12 -20 0 -12 28 -10 36 3 10 17 -10 31
-24 17z"/>
<path d="M5630 5086 c0 -3 7 -12 16 -20 19 -20 40 -11 23 10 -10 13 -39 20
-39 10z"/>
<path d="M3815 4970 c-3 -5 -1 -10 4 -10 6 0 11 5 11 10 0 6 -2 10 -4 10 -3 0
-8 -4 -11 -10z"/>
<path d="M4697 4960 c-3 -11 -1 -36 3 -57 14 -64 15 -120 1 -136 -9 -12 -10
-21 -1 -37 6 -11 10 -40 8 -62 -3 -36 -7 -43 -28 -48 -22 -5 -25 -12 -28 -58
-3 -48 8 -67 23 -42 8 12 16 12 34 1 11 -7 12 -13 4 -23 -6 -7 -13 -89 -17
-183 -8 -218 -13 -249 -46 -253 -14 -2 -29 -8 -34 -13 -6 -5 -18 -9 -29 -9
-10 0 -16 -4 -12 -9 3 -5 18 -6 33 -2 33 9 62 3 62 -12 0 -7 -6 -38 -14 -70
-17 -71 -12 -75 77 -58 99 19 134 30 147 46 7 8 24 15 38 15 16 0 34 10 47 26
19 24 24 25 60 16 22 -6 59 -13 82 -16 40 -6 42 -5 45 21 3 28 3 28 81 28 268
-1 427 -6 427 -13 0 -5 -53 -21 -117 -36 -151 -36 -148 -35 -137 -46 15 -15
246 -52 282 -45 20 4 39 1 48 -5 31 -26 212 16 256 60 25 25 26 29 12 41 -9 7
-28 12 -42 11 -21 -1 -32 6 -48 31 -16 24 -53 50 -133 91 -60 32 -121 68 -133
79 -79 73 -183 147 -207 147 -18 0 -47 20 -97 68 -124 116 -218 193 -261 215
-30 15 -46 30 -53 52 -6 17 -24 42 -41 54 -17 12 -83 71 -147 130 -139 127
-138 126 -145 101z"/>
<path d="M3650 4829 c-47 -44 -97 -87 -112 -97 -16 -9 -33 -31 -38 -48 -8 -25
-27 -42 -80 -73 -38 -23 -78 -53 -90 -69 -12 -15 -38 -38 -58 -52 -20 -14 -66
-53 -102 -88 -43 -41 -73 -62 -89 -62 -19 0 -59 -22 -101 -58 -3 -2 -5 -40 -5
-84 l0 -80 -45 -26 c-25 -14 -69 -31 -98 -37 -29 -6 -53 -15 -53 -20 -1 -17
84 -36 129 -31 65 8 88 -1 99 -37 11 -37 -8 -35 228 -17 77 6 217 17 312 24
94 8 176 17 183 21 7 4 9 18 5 35 -4 17 -2 31 5 35 6 4 11 28 10 54 -3 69 -2
71 26 71 17 0 24 4 20 13 -11 27 -34 115 -42 162 -8 45 -12 50 -36 53 l-28 3
0 -90 c0 -49 4 -101 10 -115 10 -27 4 -56 -11 -56 -14 0 -69 58 -69 73 0 7 5
18 11 24 9 9 6 23 -11 57 -23 49 -20 70 11 61 21 -7 22 -6 37 75 8 42 7 57 -2
65 -41 32 -39 82 3 104 25 14 81 -8 81 -31 0 -23 17 -23 24 0 9 29 8 133 -2
218 -9 79 -16 104 -30 104 -4 0 -45 -37 -92 -81z"/>
<path d="M2445 4881 c-23 -9 -59 -27 -80 -40 -50 -29 -130 -61 -154 -61 -10 0
-24 -7 -31 -15 -7 -9 -29 -15 -51 -15 -33 0 -41 -4 -49 -25 -5 -14 -16 -25
-24 -25 -20 0 -31 -19 -18 -32 6 -6 21 -2 43 11 19 12 40 21 48 21 8 0 22 7
32 16 23 21 91 29 119 14 15 -8 25 -9 33 -1 7 7 5 12 -6 17 -20 7 -22 24 -3
24 7 0 33 11 58 24 31 16 58 23 91 21 26 -1 47 3 47 9 0 5 9 20 21 32 40 43
-1 56 -76 25z"/>
<path d="M5993 4883 c-4 -10 2 -23 15 -34 12 -9 22 -21 22 -26 0 -4 22 -9 49
-10 29 -1 63 -11 83 -23 18 -11 43 -20 56 -20 28 0 29 -16 1 -25 -15 -5 -18
-10 -11 -17 8 -8 20 -7 41 1 38 16 73 8 155 -35 36 -19 71 -34 76 -34 20 0 9
27 -15 38 -14 6 -25 18 -25 26 0 9 -16 17 -42 21 -24 4 -47 11 -53 15 -5 4
-35 15 -65 25 -30 10 -80 31 -110 49 -59 33 -137 66 -158 66 -7 0 -15 -7 -19
-17z"/>
<path d="M4644 4814 c3 -9 6 -18 6 -20 0 -2 10 -4 22 -4 20 0 21 1 3 20 -22
24 -40 26 -31 4z"/>
<path d="M1952 4608 c-17 -8 -22 -19 -20 -37 2 -21 9 -27 36 -29 27 -3 34 1
43 25 8 23 7 30 -7 40 -21 15 -22 15 -52 1z m28 -38 c0 -5 -7 -10 -15 -10 -8
0 -15 5 -15 10 0 6 7 10 15 10 8 0 15 -4 15 -10z"/>
<path d="M6512 4602 c-9 -7 -10 -15 -3 -35 9 -22 17 -27 45 -27 26 0 35 5 40
23 9 36 -45 62 -82 39z m58 -32 c0 -5 -4 -10 -10 -10 -5 0 -10 5 -10 10 0 6 5
10 10 10 6 0 10 -4 10 -10z"/>
<path d="M6638 4553 c7 -3 16 -2 19 1 4 3 -2 6 -13 5 -11 0 -14 -3 -6 -6z"/>
<path d="M1862 4474 c1 -9 9 -19 16 -22 9 -3 13 2 10 14 -1 9 -9 19 -16 22 -9
3 -13 -2 -10 -14z"/>
<path d="M6642 4478 c-16 -16 -15 -28 2 -28 16 0 29 27 17 34 -4 3 -13 0 -19
-6z"/>
<path d="M3898 4349 c-14 -8 -15 -15 -7 -37 6 -15 10 -45 8 -67 -2 -43 9 -85
21 -85 6 0 3 165 -3 192 -1 4 -10 2 -19 -3z"/>
<path d="M4610 4261 c-14 -28 -13 -74 3 -69 6 3 14 15 15 29 2 13 8 29 13 35
9 11 2 24 -12 24 -5 0 -13 -9 -19 -19z"/>
<path d="M2838 4168 c-48 -28 -51 -58 -7 -58 25 0 32 6 45 35 22 54 19 56 -38
23z"/>
<path d="M2663 4075 c-36 -22 -81 -81 -69 -92 8 -9 32 10 47 36 9 16 29 35 45
42 26 13 45 39 27 39 -4 0 -27 -11 -50 -25z"/>
<path d="M2526 3985 c-10 -8 -24 -16 -30 -18 -7 -3 -7 -9 3 -20 18 -23 41 -21
41 2 0 11 5 23 10 26 12 7 13 25 3 25 -5 0 -17 -7 -27 -15z"/>
<path d="M4370 3835 c0 -8 7 -15 15 -15 8 0 15 7 15 15 0 8 -7 15 -15 15 -8 0
-15 -7 -15 -15z"/>
<path d="M1045 3806 c-236 -60 -453 -249 -575 -502 -43 -90 -60 -165 -60 -269
0 -140 39 -247 122 -339 l43 -48 -65 -67 c-92 -92 -114 -141 -108 -239 6 -93
29 -144 93 -200 84 -74 282 -123 438 -107 286 28 546 256 767 673 35 67 68
122 72 122 15 0 20 -117 9 -195 -12 -79 -52 -245 -90 -377 -23 -79 -19 -103
20 -123 72 -38 212 11 241 83 22 58 79 271 89 337 16 103 46 196 85 262 33 55
94 127 101 119 4 -3 -3 -55 -36 -271 -35 -229 -46 -378 -33 -423 25 -84 76
-120 180 -129 58 -4 73 -2 112 19 25 14 68 52 95 85 28 34 52 62 55 62 3 1 13
-19 23 -44 58 -140 258 -169 392 -57 24 20 31 22 33 10 2 -9 -49 -69 -118
-138 -155 -159 -185 -214 -185 -341 1 -74 5 -93 30 -145 21 -41 43 -68 73 -89
40 -27 53 -30 136 -33 115 -5 176 18 235 84 69 79 90 195 91 509 l0 170 63 46
c34 26 92 74 128 107 l65 60 13 -60 c52 -250 240 -317 506 -180 51 26 97 63
166 133 l97 96 6 -58 c11 -97 33 -154 71 -188 33 -29 89 -51 130 -51 53 1 138
62 200 144 l30 39 8 -39 c11 -56 45 -100 102 -131 68 -37 166 -38 246 -1 103
48 187 145 219 254 8 28 21 46 37 53 13 6 51 29 84 51 33 22 63 40 66 40 2 0
3 -76 2 -170 -3 -195 -6 -190 90 -210 57 -13 113 -7 147 15 19 12 22 26 27
134 9 156 35 334 66 438 16 55 71 149 107 184 l34 33 0 -37 c0 -21 -14 -115
-32 -210 -41 -221 -45 -396 -12 -467 40 -85 96 -121 188 -123 102 -1 207 86
331 277 78 120 235 424 235 455 0 31 -28 51 -70 51 -50 0 -60 -11 -159 -174
-189 -313 -256 -416 -271 -416 -19 0 -9 134 20 278 80 392 78 486 -9 536 -54
31 -152 28 -223 -7 -30 -15 -57 -27 -60 -27 -6 0 66 285 113 449 16 57 28 110
25 117 -10 26 -70 47 -134 48 -108 0 -99 17 -228 -429 -63 -215 -114 -396
-114 -404 0 -34 -139 -200 -208 -250 -34 -24 -42 -19 -42 23 0 17 -14 103 -31
191 -16 88 -33 199 -36 248 -4 51 -11 91 -19 97 -39 33 -171 11 -216 -35 -11
-12 -33 -63 -48 -113 -18 -61 -43 -117 -77 -169 -86 -133 -238 -374 -282 -450
-24 -40 -46 -73 -49 -73 -11 0 8 170 32 281 33 154 71 300 95 372 11 32 18 64
14 73 -15 39 -141 66 -207 44 -43 -14 -47 -20 -90 -155 -28 -86 -51 -131 -122
-242 -48 -75 -115 -167 -148 -206 -82 -93 -211 -203 -264 -224 -41 -15 -44
-15 -70 4 -15 11 -33 37 -40 59 -12 37 -12 40 10 54 199 130 396 461 498 835
28 100 39 322 20 381 -32 101 -137 144 -269 110 -233 -60 -389 -353 -486 -914
-16 -97 -36 -138 -119 -251 -47 -65 -105 -131 -116 -131 -4 0 -6 10 -4 23 22
160 71 406 95 475 10 31 19 65 19 75 0 27 -58 57 -112 57 -30 0 -63 8 -90 23
-61 31 -155 29 -233 -6 -121 -56 -232 -168 -311 -312 -46 -84 -274 -429 -280
-423 -2 3 5 52 15 110 55 295 76 573 48 627 -22 44 -73 65 -152 65 -91 -1
-139 -24 -238 -114 -41 -39 -77 -70 -80 -70 -2 0 -9 18 -16 39 -29 100 -149
127 -252 58 -22 -15 -86 -100 -179 -239 -162 -242 -214 -310 -303 -401 -137
-139 -268 -207 -399 -209 -67 -1 -82 2 -116 24 -78 52 -92 146 -36 248 40 74
49 80 112 69 97 -15 208 20 273 87 111 115 -86 208 -296 141 -16 -5 -25 0 -39
24 -90 152 -42 400 125 654 63 94 153 185 212 214 108 52 204 6 228 -109 16
-72 -1 -234 -34 -328 -45 -128 -126 -227 -160 -193 -19 19 -13 128 11 208 12
39 45 121 72 182 28 61 50 124 50 140 0 36 -31 61 -77 61 -58 0 -80 -19 -140
-118 -73 -122 -109 -216 -124 -324 -23 -156 14 -264 106 -308 65 -32 182 -26
247 13 103 60 198 203 238 357 36 136 24 345 -23 436 -24 46 -101 110 -154
128 -57 19 -234 20 -308 2z m3123 -258 c57 -70 -30 -409 -181 -703 -22 -44
-68 -123 -101 -175 -58 -91 -61 -93 -64 -63 -10 103 164 734 240 872 40 73 81
99 106 69z m-1010 -680 c-15 -61 -35 -148 -44 -192 -27 -143 -99 -297 -169
-368 -72 -72 -102 -52 -85 55 20 126 141 420 222 539 35 52 83 92 99 82 3 -2
-7 -54 -23 -116z m1931 -245 l1 -133 -27 -6 c-64 -14 -140 -37 -166 -51 -16
-8 -31 -13 -33 -11 -2 3 17 38 42 79 25 41 73 123 107 183 72 131 75 128 76
-61z m-39 -315 c-1 -24 -38 -58 -69 -64 -49 -10 -33 28 24 59 37 20 45 21 45
5z m-1935 -365 c-21 -333 -73 -455 -175 -413 -21 9 -38 29 -56 66 -46 94 -24
209 59 310 34 41 156 144 170 144 6 0 7 -43 2 -107z"/>
<path d="M4696 3525 c-58 -21 -88 -46 -113 -95 -28 -54 -29 -76 -3 -118 55
-91 219 -79 291 21 58 79 22 171 -75 196 -54 13 -52 13 -100 -4z"/>
<path d="M4686 2041 c-4 -8 -49 -145 -82 -256 l-28 -90 -15 84 c-17 92 -17 91
-95 94 -23 0 -41 -4 -44 -11 -2 -7 1 -12 6 -12 5 0 -9 -52 -31 -115 -23 -63
-45 -115 -49 -115 -5 0 -6 5 -2 11 8 13 5 371 -3 379 -3 3 -8 -1 -10 -7 -6
-18 -23 -16 -23 2 0 8 -9 15 -20 15 -19 0 -20 -7 -22 -172 -2 -95 -2 -204 0
-241 1 -48 -1 -66 -9 -61 -17 10 -1 -54 19 -77 18 -21 72 -26 72 -6 0 8 3 8 9
-2 16 -25 35 2 75 104 21 52 41 97 46 100 4 3 13 -25 20 -63 15 -88 39 -139
68 -145 13 -2 29 2 37 9 7 8 20 11 28 8 9 -3 17 2 21 13 42 144 145 503 148
517 1 10 -3 21 -9 23 -8 3 -13 -4 -13 -16 0 -12 -4 -21 -9 -21 -4 0 -6 11 -4
25 4 19 0 25 -18 29 -30 6 -59 5 -63 -3z m-37 -208 c-30 -98 -55 -170 -57
-160 -2 10 18 89 43 175 51 166 54 176 62 168 3 -3 -19 -85 -48 -183z m33
-108 c-6 -36 -19 -40 -14 -4 2 16 8 29 12 29 4 0 5 -11 2 -25z m-250 -100
c-29 -70 -72 -148 -72 -131 0 24 95 239 98 221 1 -11 -10 -52 -26 -90z m198
-92 c-11 -17 -11 -17 -6 0 3 10 7 28 7 40 2 22 2 22 6 0 2 -12 -1 -30 -7 -40z"/>
<path d="M6717 2034 c-3 -3 -21 -7 -39 -9 -29 -2 -35 -8 -50 -49 -10 -25 -13
-46 -8 -46 6 0 10 -5 10 -11 0 -5 -4 -7 -10 -4 -15 9 -41 -65 -35 -100 4 -20
3 -26 -3 -16 -12 17 -12 18 -77 -138 -29 -72 -50 -133 -44 -136 5 -4 9 -21 10
-38 1 -29 2 -30 8 -8 9 34 30 39 24 6 -5 -21 -2 -25 19 -25 25 0 32 11 69 107
10 26 49 48 102 58 56 11 45 21 -20 19 l-58 -2 40 13 c23 7 60 16 83 20 38 6
42 5 42 -13 0 -11 -5 -22 -11 -24 -5 -2 -7 -11 -4 -21 4 -9 11 -15 15 -12 4 2
10 -12 14 -33 8 -53 8 -64 -6 -56 -7 4 -8 3 -4 -4 4 -6 14 -9 24 -6 16 5 16 5
0 -9 -10 -8 -18 -23 -18 -33 0 -15 2 -16 9 -5 7 11 14 -1 26 -42 12 -41 20
-54 31 -50 8 3 14 9 14 14 0 4 7 5 17 2 11 -5 14 -3 8 6 -4 7 -8 82 -9 167
l-1 154 30 12 30 11 -25 5 c-14 2 -31 9 -39 15 -11 10 -9 13 10 18 l24 7 -26
1 c-24 1 -27 6 -53 121 -23 100 -31 120 -46 120 -10 0 -22 5 -25 10 -7 11 -38
14 -48 4z m21 -214 c9 -37 8 -47 -5 -62 -14 -16 -73 -26 -73 -13 0 19 54 135
60 128 4 -4 12 -28 18 -53z m-89 -19 c-8 -22 -14 -29 -19 -20 -5 7 -2 18 6 26
8 8 14 19 14 25 0 6 2 9 5 6 3 -2 0 -19 -6 -37z m-32 -73 c-3 -8 -6 -5 -6 6
-1 11 2 17 5 13 3 -3 4 -12 1 -19z m118 2 c-3 -5 -18 -10 -33 -9 l-27 1 25 8
c35 11 42 11 35 0z m145 -238 c0 -15 -2 -15 -10 -2 -13 20 -13 33 0 25 6 -3
10 -14 10 -23z"/>
<path d="M6429 2016 c9 -10 2 -19 -31 -42 -24 -16 -46 -29 -50 -29 -4 0 -39
-24 -77 -52 -39 -29 -73 -53 -75 -53 -3 0 -3 35 0 78 5 71 4 75 -10 57 -15
-19 -15 -19 -16 7 0 44 -32 46 -43 3 -4 -18 -5 -18 -6 3 0 12 -6 22 -12 22 -5
0 -7 -5 -4 -11 4 -5 1 -24 -5 -40 -13 -32 -5 -53 10 -29 9 13 10 13 9 0 -1 -8
-5 -26 -9 -40 l-8 -25 -2 25 c-1 24 -2 24 -10 4 -5 -12 -14 -60 -20 -105 -6
-46 -16 -108 -22 -137 -9 -42 -9 -58 1 -74 7 -11 10 -32 6 -49 -6 -28 -5 -29
30 -29 32 0 38 4 51 35 8 19 17 65 22 102 5 53 11 68 25 71 10 2 20 -4 24 -15
4 -10 30 -54 58 -98 29 -44 55 -98 59 -119 5 -26 10 -35 16 -26 6 9 9 8 14 -7
14 -44 86 -9 86 41 0 9 -24 53 -54 98 -29 46 -66 107 -80 136 -26 52 -27 55
-10 73 17 19 143 116 194 150 35 23 18 34 -22 15 l-32 -17 26 28 c28 31 27 54
-2 46 -11 -3 -20 0 -20 6 0 6 -5 11 -11 11 -8 0 -8 -4 0 -14z m-19 -101 c0 -2
-10 -10 -22 -16 -21 -11 -22 -11 -9 4 13 16 31 23 31 12z"/>
<path d="M5105 2010 c-71 -3 -137 -10 -146 -14 -10 -4 -19 -3 -22 1 -9 14 -76
3 -71 -11 2 -6 -7 -69 -20 -139 -33 -167 -51 -336 -36 -351 5 -5 10 -25 10
-43 0 -29 3 -33 28 -33 44 0 60 44 67 185 5 103 35 298 48 312 10 10 167 13
167 3 0 -6 -31 -10 -72 -11 -71 -1 -72 -1 -28 -10 25 -5 57 -7 73 -3 15 3 27
3 27 1 0 -3 -7 -41 -15 -84 -8 -43 -15 -95 -15 -115 0 -20 -4 -40 -10 -43 -16
-10 -12 -45 5 -45 13 0 15 -9 11 -47 -6 -50 -16 -71 -16 -34 0 12 -4 20 -9 17
-12 -7 -12 -85 0 -116 8 -22 52 -53 62 -44 2 2 0 30 -4 61 -6 45 -5 61 6 73
13 12 15 8 15 -35 0 -55 8 -95 19 -95 4 0 3 21 -2 48 -8 38 -5 78 17 207 15
88 35 190 44 227 17 72 23 78 93 78 42 0 71 19 76 49 3 20 0 21 -85 19 -48 -1
-145 -4 -217 -8z m-238 -162 c-3 -7 -5 -2 -5 12 0 14 2 19 5 13 2 -7 2 -19 0
-25z m-10 -60 c-3 -8 -6 -5 -6 6 -1 11 2 17 5 13 3 -3 4 -12 1 -19z m-10 -70
c-3 -7 -5 -2 -5 12 0 14 2 19 5 13 2 -7 2 -19 0 -25z m250 -250 c-3 -8 -6 -5
-6 6 -1 11 2 17 5 13 3 -3 4 -12 1 -19z m-250 -10 c-3 -8 -6 -5 -6 6 -1 11 2
17 5 13 3 -3 4 -12 1 -19z"/>
<path d="M6379 1999 l-24 -20 28 17 c15 9 27 18 27 20 0 8 -8 4 -31 -17z"/>
<path d="M7104 2011 c-87 -4 -147 -11 -155 -18 -8 -7 -14 -25 -13 -40 l1 -28
91 2 c56 2 92 -1 92 -7 0 -6 -32 -10 -72 -11 -69 -1 -71 -2 -33 -11 22 -5 55
-6 73 -3 l32 6 -6 -43 c-3 -24 -10 -59 -15 -78 -5 -19 -9 -54 -9 -77 0 -23 -5
-45 -11 -49 -6 -3 -9 -19 -5 -35 4 -19 1 -29 -7 -29 -8 0 -7 -4 3 -10 11 -7
17 -4 22 13 3 12 5 1 3 -26 -2 -48 -15 -79 -15 -38 0 12 -4 20 -9 17 -12 -8
-11 -72 0 -111 8 -25 55 -63 65 -52 2 1 -1 29 -6 62 -6 47 -5 63 6 75 12 12
14 7 14 -41 0 -32 6 -63 14 -75 13 -17 13 -14 4 29 -10 50 6 175 53 403 21 99
22 102 51 108 17 3 41 6 54 6 35 0 76 22 70 37 -3 7 -1 13 5 13 6 0 7 5 4 10
-6 10 -57 10 -301 1z m-17 -543 c-3 -8 -6 -5 -6 6 -1 11 2 17 5 13 3 -3 4 -12
1 -19z"/>
<path d="M8079 1968 l-43 -53 43 40 c37 34 30 22 -39 -73 -46 -61 -86 -110
-88 -107 -3 3 9 26 27 51 18 26 30 48 28 51 -3 2 -15 -12 -27 -31 -12 -20 -25
-36 -29 -36 -11 0 -71 132 -71 154 0 14 -5 17 -24 12 -16 -4 -26 -1 -30 9 -10
28 -24 15 -24 -22 0 -20 20 -87 44 -149 24 -62 41 -119 38 -127 -3 -8 2 -21
10 -30 18 -18 21 -65 5 -87 -8 -12 -9 -9 -5 13 4 15 3 27 -2 27 -10 0 -10 -3
-18 -78 -4 -34 -2 -58 5 -65 6 -6 11 -24 11 -39 0 -24 4 -28 28 -28 36 0 53
32 59 110 9 121 54 216 168 357 41 51 75 97 75 103 0 15 -16 12 -30 -5 -7 -8
-17 -15 -23 -15 -5 0 -2 9 9 21 18 20 18 21 -1 35 -32 24 -51 16 -96 -38z m23
-100 c-21 -29 -53 -80 -72 -112 -19 -33 -36 -54 -38 -47 -4 13 28 66 95 154
55 71 67 75 15 5z"/>
<path d="M5446 2001 c-14 -5 -16 -10 -8 -15 7 -4 12 -17 11 -29 -1 -20 -2 -20
-8 3 -7 27 -21 -30 -61 -250 -24 -133 -25 -180 -4 -180 11 0 13 -6 9 -19 -3
-11 -1 -22 5 -26 6 -3 10 4 11 17 1 23 1 23 8 -2 4 -14 14 -26 23 -28 12 -2
19 15 32 85 9 48 16 98 16 109 0 21 5 22 80 22 90 1 88 3 69 -77 -17 -75 -26
-162 -17 -167 4 -3 8 1 9 8 0 7 4 3 9 -9 14 -35 37 -28 46 15 l8 37 6 -40 6
-40 12 53 c16 69 78 402 88 467 6 44 5 48 -8 38 -17 -15 -28 -7 -28 19 0 32
-29 20 -34 -14 -3 -18 -11 -67 -17 -108 -8 -50 -14 -69 -19 -56 -6 19 -7 19
-12 0 -4 -17 -16 -22 -59 -27 -62 -8 -119 -9 -119 -3 0 2 7 40 15 83 14 75 19
132 8 106 -8 -21 -31 -15 -35 9 -3 25 -15 30 -42 19z m-6 -111 c-5 -22 -8 -27
-9 -13 -1 21 9 56 14 51 2 -2 0 -19 -5 -38z m-17 -90 c-3 -12 -8 -19 -11 -16
-5 6 5 36 12 36 2 0 2 -9 -1 -20z m244 -152 c-3 -7 -5 -2 -5 12 0 14 2 19 5
13 2 -7 2 -19 0 -25z m34 -129 c-5 -13 -10 -19 -10 -12 -1 15 10 45 15 40 3
-2 0 -15 -5 -28z"/>
<path d="M5706 1995 c4 -8 8 -15 10 -15 2 0 4 7 4 15 0 8 -4 15 -10 15 -5 0
-7 -7 -4 -15z"/>
<path d="M7696 1995 c4 -8 8 -15 10 -15 2 0 4 7 4 15 0 8 -4 15 -10 15 -5 0
-7 -7 -4 -15z"/>
<path d="M7714 1963 c-13 -94 -32 -178 -34 -153 l-2 25 -7 -25 c-7 -24 -11
-25 -94 -28 -48 -1 -87 1 -87 5 1 4 7 37 15 73 16 75 20 133 6 111 -10 -16
-31 -6 -31 15 0 8 -10 14 -25 14 -22 0 -24 -3 -20 -32 4 -25 3 -28 -4 -13 -7
17 -10 14 -16 -20 -3 -22 -13 -67 -20 -100 -18 -77 -45 -242 -45 -277 0 -19 5
-28 16 -28 11 0 13 -6 9 -19 -3 -11 -1 -22 5 -26 6 -3 10 4 11 17 1 21 1 21
11 -4 23 -65 44 -23 66 132 l7 55 81 2 81 2 -18 -82 c-20 -87 -25 -183 -10
-158 7 11 10 9 16 -8 10 -34 33 -25 42 17 l7 37 6 -40 c5 -40 6 -39 23 33 20
85 73 375 82 447 4 33 3 45 -3 36 -12 -17 -32 -6 -32 20 0 10 -6 19 -14 19
-10 0 -17 -16 -22 -47z m-283 -74 c-6 -24 -9 -28 -10 -12 -1 24 9 56 16 50 2
-3 0 -20 -6 -38z m-20 -96 c-8 -15 -10 -15 -11 -2 0 17 10 32 18 25 2 -3 -1
-13 -7 -23z m246 -145 c-3 -7 -5 -2 -5 12 0 14 2 19 5 13 2 -7 2 -19 0 -25z
m-10 -40 c-3 -8 -6 -5 -6 6 -1 11 2 17 5 13 3 -3 4 -12 1 -19z m48 -88 c-4
-12 -9 -19 -12 -17 -3 3 -2 15 2 27 4 12 9 19 12 17 3 -3 2 -15 -2 -27z"/>
<path d="M5690 1945 c0 -14 5 -25 10 -25 6 0 10 11 10 25 0 14 -4 25 -10 25
-5 0 -10 -11 -10 -25z"/>
<path d="M7680 1953 c0 -10 5 -25 10 -33 7 -11 10 -7 10 18 0 17 -4 32 -10 32
-5 0 -10 -8 -10 -17z"/>
<path d="M6225 1884 c-19 -15 -22 -21 -9 -15 18 9 52 41 43 41 -2 0 -17 -12
-34 -26z"/>
<path d="M5687 1887 c-11 -29 -9 -53 4 -40 6 6 9 21 7 34 -3 21 -4 22 -11 6z"/>
<path d="M7675 1879 c-4 -12 -2 -26 4 -32 8 -8 11 -2 11 21 0 37 -6 41 -15 11z"/>
<path d="M4392 1795 c-6 -14 -8 -25 -3 -25 8 0 23 41 17 47 -1 2 -8 -8 -14
-22z"/>
<path d="M4367 1723 c-7 -39 -1 -40 11 -4 6 17 7 31 3 31 -5 0 -11 -12 -14
-27z"/>
<path d="M5085 1590 c-3 -5 -1 -10 4 -10 6 0 11 5 11 10 0 6 -2 10 -4 10 -3 0
-8 -4 -11 -10z"/>
<path d="M6771 1554 c0 -11 3 -14 6 -6 3 7 2 16 -1 19 -3 4 -6 -2 -5 -13z"/>
<path d="M3560 1359 c-151 -4 -358 -12 -460 -18 -102 -6 -324 -16 -495 -21
-170 -6 -362 -15 -425 -20 -63 -5 -196 -14 -295 -20 -208 -12 -419 -28 -840
-65 -195 -18 -496 -58 -559 -76 -46 -13 -85 -39 -86 -56 0 -16 7 -16 132 2 57
8 182 19 278 24 96 6 240 19 320 30 80 10 215 22 300 25 85 3 218 12 295 20
77 8 221 20 320 26 99 6 230 15 292 20 201 18 969 32 1418 25 429 -6 987 -25
1310 -45 157 -10 209 -14 565 -46 150 -13 455 -49 720 -85 41 -6 134 -9 206
-7 113 3 135 6 153 22 12 11 21 27 21 37 0 27 -64 64 -161 93 -165 49 -326 67
-1034 116 -411 28 -1325 37 -1975 19z"/>
</g>
</svg>
