<?xml version="1.0" standalone="no"?>
<!DOCTYPE svg PUBLIC "-//W3C//DTD SVG 20010904//EN"
 "http://www.w3.org/TR/2001/REC-SVG-20010904/DTD/svg10.dtd">
<svg version="1.0" xmlns="http://www.w3.org/2000/svg"
 width="396.000000pt" height="398.000000pt" viewBox="0 0 396.000000 398.000000"
 preserveAspectRatio="xMidYMid meet">

<g transform="translate(0.000000,398.000000) scale(0.100000,-0.100000)"
fill="#000000" stroke="none">
<path d="M505 3398 c-27 -5 -57 -16 -67 -25 -40 -36 -34 -149 11 -193 45 -45
112 -51 670 -53 437 -2 505 -5 510 -18 12 -30 38 -59 67 -74 48 -25 55 -20 34
28 -27 58 -25 75 8 83 91 20 112 45 112 139 0 79 -9 99 -51 114 -40 14 -1220
13 -1294 -1z m219 -74 c23 -9 20 -22 -6 -26 -35 -5 -31 -42 5 -46 19 -2 27 1
27 12 0 18 34 56 51 56 5 0 7 -5 4 -10 -3 -6 1 -17 9 -26 13 -12 16 -13 16 -2
0 10 14 14 50 13 27 -1 52 -4 56 -8 4 -3 15 -2 26 4 28 15 58 2 58 -25 0 -35
-25 -52 -55 -38 -16 7 -26 8 -30 1 -10 -15 -25 0 -26 24 -1 22 -1 22 -7 -1 -4
-13 -11 -23 -17 -23 -5 0 -13 10 -17 23 -6 23 -6 23 -7 1 -1 -28 -19 -40 -27
-18 -6 14 -8 14 -25 -1 -16 -14 -24 -15 -44 -6 -15 7 -27 8 -30 2 -9 -15 -42
-12 -59 6 -23 22 -20 60 6 78 26 19 22 18 42 10z m544 -48 c-3 -46 -5 -51 -28
-51 -23 0 -25 4 -28 52 l-3 52 31 -1 c31 -1 31 -1 28 -52z m386 41 c16 -12 17
-17 5 -38 -7 -13 -13 -30 -14 -36 0 -7 -4 -13 -10 -13 -13 0 -16 42 -3 57 7 8
3 10 -11 6 -23 -6 -31 21 -8 30 19 8 22 8 41 -6z m-139 -6 c-3 -5 -1 -12 5
-16 5 -3 10 -17 10 -31 0 -14 4 -23 9 -20 5 3 7 15 4 26 -3 11 0 21 6 22 27 3
31 2 32 -7 1 -5 5 -17 10 -26 5 -11 4 -20 -4 -27 -14 -11 -102 -11 -113 0 -4
4 -13 3 -21 -3 -10 -9 -13 -7 -13 9 0 29 -18 37 -22 10 -4 -31 -22 -29 -27 2
l-4 25 -6 -23 c-9 -34 -26 -27 -26 10 0 32 1 32 50 33 44 0 50 -3 56 -25 6
-23 9 -22 14 5 5 26 18 45 32 45 8 0 12 -4 8 -9z m-425 -12 c0 -7 10 -9 24 -5
38 9 56 -2 54 -35 -2 -31 -32 -49 -51 -30 -6 6 -15 7 -22 1 -22 -18 -41 15
-36 68 1 15 31 16 31 1z m-458 -30 c-2 -13 -8 -29 -14 -36 -6 -8 -3 -10 11 -6
15 4 21 1 21 -11 0 -11 -9 -16 -30 -16 -25 0 -30 4 -30 24 0 14 5 28 10 31 6
3 10 15 10 26 0 12 5 19 13 16 6 -2 10 -15 9 -28z m703 -9 c0 -30 -3 -35 -25
-35 -21 0 -25 5 -25 30 -1 41 3 47 28 43 18 -2 22 -10 22 -38z"/>
<path d="M770 3260 c0 -5 7 -10 15 -10 8 0 15 5 15 10 0 6 -7 10 -15 10 -8 0
-15 -4 -15 -10z"/>
<path d="M970 3260 c0 -5 7 -10 16 -10 8 0 12 5 9 10 -3 6 -10 10 -16 10 -5 0
-9 -4 -9 -10z"/>
<path d="M1091 3264 c0 -11 3 -14 6 -6 3 7 2 16 -1 19 -3 4 -6 -2 -5 -13z"/>
<path d="M1630 2400 c0 -22 5 -40 10 -40 6 0 10 8 10 17 0 15 1 15 14 -2 13
-18 13 -18 24 1 10 17 11 17 12 2 0 -10 5 -18 10 -18 6 0 10 18 10 40 0 45
-23 56 -34 18 l-7 -23 -11 23 c-18 36 -38 27 -38 -18z"/>
<path d="M1730 2430 c0 -5 5 -10 10 -10 6 0 10 5 10 10 0 6 -4 10 -10 10 -5 0
-10 -4 -10 -10z"/>
<path d="M2002 2403 c3 -33 6 -38 28 -38 18 0 26 6 28 23 2 15 -2 22 -13 22
-8 0 -18 7 -21 15 -11 29 -25 15 -22 -22z m38 -18 c0 -8 -4 -15 -10 -15 -5 0
-10 7 -10 15 0 8 5 15 10 15 6 0 10 -7 10 -15z"/>
<path d="M2333 2424 c-4 -10 1 -22 10 -29 21 -15 22 -29 2 -21 -8 3 -15 1 -15
-4 0 -6 9 -10 20 -10 27 0 38 30 16 42 -16 9 -16 11 1 24 17 13 17 13 -5 14
-12 0 -25 -7 -29 -16z"/>
<path d="M2457 2427 c-7 -19 4 -68 14 -61 12 7 12 74 0 74 -5 0 -11 -6 -14
-13z"/>
<path d="M2497 2433 c-4 -3 -7 -21 -7 -38 0 -29 3 -32 35 -33 31 -1 35 1 35
23 0 19 -5 25 -22 25 -17 0 -19 -3 -10 -9 11 -7 11 -9 -2 -14 -15 -6 -21 8
-17 41 2 13 -2 15 -12 5z"/>
<path d="M1730 2385 c0 -14 5 -25 10 -25 6 0 10 11 10 25 0 14 -4 25 -10 25
-5 0 -10 -11 -10 -25z"/>
<path d="M1780 2390 c0 -11 5 -22 10 -25 6 -3 10 3 10 14 0 12 5 21 10 21 6 0
10 -10 10 -21 0 -18 2 -19 15 -9 11 9 15 10 15 1 0 -22 45 -7 48 16 3 19 -1
21 -57 21 -53 0 -61 -3 -61 -18z m100 -5 c0 -8 -4 -15 -10 -15 -5 0 -10 7 -10
15 0 8 5 15 10 15 6 0 10 -7 10 -15z"/>
<path d="M1910 2385 c0 -31 8 -32 20 -2 l9 22 0 -22 c1 -28 21 -31 21 -3 0 27
18 25 23 -2 4 -20 4 -19 6 5 1 25 -2 27 -39 27 -36 0 -40 -2 -40 -25z"/>
<path d="M2070 2385 c0 -14 4 -25 9 -25 5 0 11 11 13 25 4 17 1 25 -8 25 -8 0
-14 -11 -14 -25z"/>
<path d="M2110 2385 c0 -19 5 -25 23 -25 17 0 23 6 25 25 1 21 -3 25 -23 25
-20 0 -25 -5 -25 -25z"/>
<path d="M2193 2395 c-2 -8 -2 -19 2 -25 9 -15 42 -12 49 5 3 9 12 12 22 8 16
-6 16 -7 -2 -14 -18 -7 -17 -8 3 -8 24 -1 39 14 23 24 -6 4 -8 10 -6 14 3 4
-15 8 -40 9 -30 0 -47 -5 -51 -13z"/>
<path d="M2394 2395 c-4 -9 -2 -21 4 -27 16 -16 47 -5 47 17 0 26 -42 34 -51
10z m36 -3 c0 -13 -12 -22 -22 -16 -10 6 -1 24 13 24 5 0 9 -4 9 -8z"/>
<path d="M1800 2090 c-14 -14 -20 -33 -20 -68 l0 -49 398 -6 c218 -3 474 -4
567 -1 94 2 237 2 319 -2 l148 -6 -3 -162 c-1 -106 2 -171 9 -189 7 -16 12
-33 12 -38 0 -5 9 -9 20 -9 18 0 82 -58 133 -119 21 -27 22 -67 1 -75 -9 -3
-27 3 -41 14 -14 11 -36 20 -50 20 -26 0 -41 24 -25 43 5 6 13 22 16 34 5 17
2 23 -16 29 -22 7 -22 7 -3 14 18 6 17 9 -13 24 -32 17 -32 16 -42 -9 -13 -34
-13 -72 0 -80 6 -3 10 -1 10 6 0 7 6 4 14 -7 10 -13 11 -23 4 -31 -7 -9 -7
-13 1 -13 6 0 11 -7 11 -15 0 -9 -9 -15 -25 -15 l-25 0 0 -260 c0 -143 2 -260
4 -260 2 0 41 39 87 86 46 47 92 90 101 95 14 8 16 5 8 -20 -4 -16 -7 -31 -5
-33 2 -2 6 -17 9 -34 5 -29 3 -32 -47 -52 -29 -12 -59 -22 -67 -22 -12 -1 -11
-3 3 -11 16 -9 16 -12 2 -32 -8 -12 -15 -25 -15 -30 0 -13 545 -6 572 7 21 11
23 18 24 94 0 45 -3 82 -8 82 -4 0 -8 7 -8 15 0 8 -7 15 -16 15 -13 0 -15 8
-12 43 3 28 -1 51 -13 71 -11 19 -16 40 -12 58 6 29 -10 62 -53 109 -27 29
-27 52 0 143 23 75 16 168 -20 246 -32 69 -54 93 -128 137 -56 32 -63 34 -128
29 -61 -4 -68 -3 -68 13 0 11 7 22 16 25 28 11 100 6 113 -6 10 -11 12 -8 9
12 -3 24 -5 25 -83 25 l-80 0 -5 -43 c-4 -33 -11 -47 -35 -62 -48 -32 -52 -27
-47 58 2 42 6 79 9 82 2 3 134 5 291 5 l287 0 0 59 c-1 45 -5 61 -20 72 -16
12 -180 14 -1032 14 -1000 0 -1013 0 -1033 -20z m98 -53 c4 -21 -25 -34 -40
-19 -8 8 -8 16 2 27 16 19 34 15 38 -8z m90 0 c4 -21 -25 -34 -40 -19 -8 8 -8
16 2 27 16 19 34 15 38 -8z m92 -3 c0 -19 -28 -30 -42 -16 -8 8 -8 15 1 26 14
17 41 10 41 -10z m1240 -259 c-7 -8 -18 -15 -24 -15 -6 0 -2 7 8 15 25 19 32
19 16 0z m-13 -487 c-3 -8 -6 -5 -6 6 -1 11 2 17 5 13 3 -3 4 -12 1 -19z m13
-68 c0 -28 26 -39 73 -28 42 9 76 -4 40 -16 -25 -8 -83 -88 -83 -114 0 -11 -9
-30 -19 -43 l-19 -24 -6 25 c-8 35 -3 220 7 220 4 0 7 -9 7 -20z"/>
<path d="M2400 1922 c-25 -12 -49 -40 -83 -96 -59 -99 -68 -128 -74 -244 -5
-92 -6 -93 -42 -123 -32 -26 -33 -29 -8 -18 35 16 44 6 22 -27 -12 -19 -20
-23 -28 -15 -6 6 -16 11 -22 11 -5 0 -2 -5 8 -11 12 -7 17 -23 17 -53 0 -36
-5 -47 -25 -60 -17 -11 -24 -23 -21 -34 4 -12 -8 -26 -41 -47 -44 -29 -54 -45
-80 -128 -3 -10 1 -25 10 -35 18 -21 69 -143 62 -150 -3 -3 -5 -2 -5 3 0 4 -7
2 -15 -5 -8 -7 -12 -16 -9 -21 3 -5 -1 -6 -8 -4 -16 7 -65 -41 -54 -52 4 -5
260 -9 568 -11 l561 -3 -7 23 c-3 13 -13 57 -21 98 -8 41 -31 120 -51 175 -20
55 -42 116 -49 135 -11 31 -20 37 -96 63 -46 16 -86 31 -88 33 -2 2 1 16 8 30
10 23 9 30 -9 49 -24 26 -26 72 -4 96 22 25 9 77 -57 215 -60 129 -95 176
-152 202 -55 27 -159 29 -207 4z m188 -111 c42 -44 69 -101 53 -110 -6 -4 -11
-12 -9 -17 5 -18 -23 -54 -42 -54 -24 0 -53 41 -44 63 7 18 -23 37 -58 36
l-23 0 22 -11 c12 -6 24 -19 26 -30 5 -17 2 -18 -41 -12 -26 4 -55 11 -65 16
-17 8 -16 11 5 39 73 95 82 102 136 108 8 0 26 -12 40 -28z m-158 -197 c0 -23
6 -37 19 -44 30 -15 38 -12 13 6 -14 9 -22 26 -22 44 0 26 3 28 37 28 32 0 35
-2 20 -12 -9 -7 -14 -16 -10 -19 12 -13 44 -7 49 8 9 23 26 18 22 -7 -2 -12
-18 -33 -37 -45 -27 -18 -30 -23 -14 -23 11 0 30 11 43 25 29 31 40 32 40 3 0
-12 8 -30 18 -41 17 -20 16 -20 -43 -14 l-60 6 25 -19 c27 -21 65 -26 75 -10
8 14 25 3 25 -16 0 -13 -12 -15 -77 -9 -91 8 -104 16 -78 46 19 20 19 20 -6
14 -13 -3 -37 -1 -52 4 -59 23 -17 -30 66 -81 26 -16 47 -34 47 -38 0 -5 9
-12 20 -15 14 -5 29 2 51 25 36 36 48 34 23 -5 -20 -30 -63 -50 -116 -53 -29
-2 -40 3 -57 24 -12 15 -21 37 -21 50 0 17 -7 25 -25 30 -14 3 -30 14 -35 24
-13 24 -13 67 0 75 5 3 7 20 3 37 -5 23 -2 34 12 44 26 19 45 1 45 -42z m226
-34 c13 0 24 -8 27 -20 4 -16 0 -20 -22 -20 -32 0 -51 16 -51 44 0 16 3 17 12
8 7 -7 22 -12 34 -12z m14 -60 c12 -8 11 -10 -7 -10 -13 0 -23 5 -23 10 0 13
11 13 30 0z m-57 -191 c3 -11 -1 -39 -9 -61 -8 -22 -14 -53 -14 -69 0 -34 -6
-38 -69 -46 -72 -8 -161 5 -161 24 0 11 5 13 18 8 17 -7 51 -9 57 -3 2 2 5 19
7 38 3 30 9 37 59 62 31 15 64 37 74 48 23 25 31 25 38 -1z"/>
<path d="M1990 999 c1 -14 80 -108 80 -95 0 16 -30 63 -54 85 -18 17 -26 20
-26 10z"/>
</g>
</svg>
