<?xml version="1.0" standalone="no"?>
<!DOCTYPE svg PUBLIC "-//W3C//DTD SVG 20010904//EN"
 "http://www.w3.org/TR/2001/REC-SVG-20010904/DTD/svg10.dtd">
<svg version="1.0" xmlns="http://www.w3.org/2000/svg"
 width="150.000000pt" height="150.000000pt" viewBox="0 0 150.000000 150.000000"
 preserveAspectRatio="xMidYMid meet">

<g transform="translate(0.000000,150.000000) scale(0.100000,-0.100000)"
fill="#000000" stroke="none">
<path d="M160 1310 c-15 -15 -20 -33 -20 -75 0 -87 13 -95 160 -95 l120 0 0
-30 c0 -54 28 -70 125 -70 65 0 87 -3 91 -14 9 -22 33 -28 27 -6 -3 10 4 23
16 32 26 19 35 66 19 98 -11 19 -23 26 -58 30 l-45 5 -3 55 c-5 90 -5 90 -224
90 -175 0 -189 -1 -208 -20z m395 -40 c-4 -6 -77 -10 -185 -10 -108 0 -181 4
-185 10 -4 7 60 10 185 10 125 0 189 -3 185 -10z m-5 -30 c0 -6 -68 -10 -185
-10 -117 0 -185 4 -185 10 0 6 68 10 185 10 117 0 185 -4 185 -10z m-180 -30
c0 -6 -38 -10 -95 -10 -57 0 -95 4 -95 10 0 6 38 10 95 10 57 0 95 -4 95 -10z
m160 -100 c0 -5 -4 -10 -10 -10 -5 0 -10 5 -10 10 0 6 5 10 10 10 6 0 10 -4
10 -10z m40 0 c0 -5 -2 -10 -4 -10 -3 0 -8 5 -11 10 -3 6 -1 10 4 10 6 0 11
-4 11 -10z m50 0 c0 -5 -4 -10 -10 -10 -5 0 -10 5 -10 10 0 6 5 10 10 10 6 0
10 -4 10 -10z"/>
<path d="M964 1321 c-30 -13 -71 -66 -79 -101 -9 -41 9 -91 46 -126 26 -25 38
-29 89 -29 51 0 63 4 90 30 61 59 62 141 0 200 -31 30 -105 43 -146 26z m132
-45 c29 -29 34 -41 34 -81 0 -40 -5 -52 -34 -81 -39 -39 -89 -45 -137 -17
-101 60 -55 213 64 213 31 0 46 -7 73 -34z"/>
<path d="M796 915 c-5 -13 -45 -15 -275 -15 -317 0 -301 5 -301 -101 0 -65 -1
-69 -23 -69 -43 0 -47 -15 -47 -172 0 -137 1 -149 20 -160 17 -11 20 -24 20
-95 0 -46 4 -83 8 -83 5 0 14 35 20 77 7 43 16 81 20 85 5 5 226 7 493 6 l484
-3 16 -85 c19 -96 21 -95 19 7 -1 69 0 73 24 83 41 15 47 41 45 181 -1 122 0
132 20 145 14 10 21 26 21 49 0 46 -22 65 -76 65 -37 0 -44 3 -44 19 0 46 -20
51 -215 51 -153 0 -184 2 -189 15 -3 8 -12 15 -20 15 -7 0 -16 -7 -20 -15z
m74 -94 c0 -33 -19 -71 -35 -71 -13 0 -15 -9 -10 -52 15 -132 9 -122 90 -144
90 -23 107 -20 133 26 20 36 26 40 62 40 48 0 50 -9 10 -72 l-30 -48 -150 0
c-145 0 -150 1 -167 24 l-18 23 -44 -23 c-24 -13 -61 -24 -82 -24 -42 0 -59
21 -74 88 -6 31 -5 33 37 51 61 26 93 63 79 89 -15 28 -14 54 3 78 15 19 15
19 60 -5 44 -23 66 -22 66 3 0 7 12 17 28 23 39 16 42 15 42 -6z m378 -28
c-21 -2 -57 -2 -80 0 -24 2 -7 4 37 4 44 0 63 -2 43 -4z m-908 -32 c0 -20 -36
-36 -46 -20 -7 13 14 39 32 39 8 0 14 -8 14 -19z m90 -1 c0 -21 -33 -29 -45
-10 -9 15 4 30 26 30 12 0 19 -7 19 -20z m895 10 c4 -6 -30 -10 -95 -10 -65 0
-99 4 -95 10 3 6 46 10 95 10 49 0 92 -4 95 -10z m-42 -27 c-29 -2 -77 -2
-105 0 -29 2 -6 3 52 3 58 0 81 -1 53 -3z"/>
</g>
</svg>
