<?xml version="1.0" standalone="no"?>
<!DOCTYPE svg PUBLIC "-//W3C//DTD SVG 20010904//EN"
 "http://www.w3.org/TR/2001/REC-SVG-20010904/DTD/svg10.dtd">
<svg version="1.0" xmlns="http://www.w3.org/2000/svg"
 width="38.000000pt" height="37.000000pt" viewBox="0 0 38.000000 37.000000"
 preserveAspectRatio="xMidYMid meet">

<g transform="translate(0.000000,37.000000) scale(0.100000,-0.100000)"
fill="#000000" stroke="none">
<path d="M13 354 c-4 -11 21 -43 83 -105 49 -49 93 -89 99 -89 6 0 50 40 98
88 64 64 86 93 81 105 -11 29 -27 20 -104 -58 l-75 -75 -75 75 c-77 77 -96 87
-107 59z"/>
<path d="M13 194 c-7 -20 153 -184 179 -184 19 0 188 162 188 180 0 6 -7 13
-16 17 -11 4 -38 -17 -88 -66 -39 -39 -76 -71 -82 -71 -5 0 -41 32 -79 70 -71
72 -91 82 -102 54z"/>
</g>
</svg>
